STARTFONT 2.1
COMMENT Unicode fullwidth 16x16 glyphs based on Terminus 24-pixel bold.
FONT -xos4-Fullwidth16-Medium-R-Normal--16-240-75-75-C-120-ISO10646-1
SIZE 16 75 75
FONTBOUNDINGBOX 16 16 0 -4
STARTPROPERTIES 5
COPYRIGHT "Copyright (C) 2012 Dimitar Toshkov Zhekov"
NOTICE "Licensed under the SIL Open Font License, Version 1.1"
FONT_ASCENT 12
FONT_DESCENT 4
DEFAULT_CHAR 65533
ENDPROPERTIES
CHARS 879
STARTCHAR space
ENCODING 32
SWIDTH 1000 0
DWIDTH 16 0
BBX 16 16 0 -4
BITMAP
X ................
X ................
X ................
X ................
X ................
X ................
X ................
X ................
X ................
X ................
X ................
X ................
X ................
X ................
X ................
X ................
ENDCHAR
STARTCHAR exclam
ENCODING 33
SWIDTH 1000 0
DWIDTH 16 0
BBX 16 16 0 -4
BITMAP
X ................
X .......**.......
X .......**.......
X .......**.......
X .......**.......
X .......**.......
X .......**.......
X .......**.......
X .......**.......
X .......**.......
X .......**.......
X ................
X ................
X .......**.......
X .......**.......
X .......**.......
ENDCHAR
STARTCHAR quotedbl
ENCODING 34
SWIDTH 1000 0
DWIDTH 16 0
BBX 16 16 0 -4
BITMAP
X ................
X ................
X ................
X ................
X .....**..**.....
X .....**..**.....
X .....**..**.....
X .....**..**.....
X .....**..**.....
X ................
X ................
X ................
X ................
X ................
X ................
X ................
ENDCHAR
STARTCHAR numbersign
ENCODING 35
SWIDTH 1000 0
DWIDTH 16 0
BBX 16 16 0 -4
BITMAP
X ................
X .....**..**.....
X .....**..**.....
X .....**..**.....
X .....**..**.....
X ...**********...
X .....**..**.....
X .....**..**.....
X .....**..**.....
X .....**..**.....
X .....**..**.....
X ...**********...
X .....**..**.....
X .....**..**.....
X .....**..**.....
X .....**..**.....
ENDCHAR
STARTCHAR dollar
ENCODING 36
SWIDTH 500 0
DWIDTH 12 0
BBX 12 24 0 -5
BITMAP
X ................
X .......**.......
X .....******.....
X ....**.**.**....
X ...**..**..**...
X ...**..**.......
X ...**..**.......
X ....**.**.......
X .....******.....
X .......**.**....
X .......**..**...
X .......**..**...
X ...**..**..**...
X ....**.**.**....
X .....******.....
X .......**.......
ENDCHAR
STARTCHAR percent
ENCODING 37
SWIDTH 500 0
DWIDTH 12 0
BBX 12 24 0 -5
BITMAP
X ................
X ....***...**....
X ...**.**..**....
X ...**.**.**.....
X ....***..**.....
X ........**......
X ........**......
X .......**.......
X .......**.......
X ......**........
X ......**........
X .....**..***....
X .....**.**.**...
X ....**..**.**...
X ....**...***....
X ................
ENDCHAR
STARTCHAR ampersand
ENCODING 38
SWIDTH 500 0
DWIDTH 12 0
BBX 12 24 0 -5
BITMAP
X ................
X ......***.......
X .....**.**......
X ....**...**.....
X ....**...**.....
X ....**...**.....
X .....**.**......
X ......***.......
X .....****..**...
X ....**..**.**...
X ...**....***....
X ...**.....**....
X ...**.....**....
X ...**....***....
X ....**..**.**...
X .....****..**...
ENDCHAR
STARTCHAR quotesingle
ENCODING 39
SWIDTH 500 0
DWIDTH 12 0
BBX 12 24 0 -5
BITMAP
X ................
X ................
X ................
X ................
X .......**.......
X .......**.......
X .......**.......
X .......**.......
X .......**.......
X ................
X ................
X ................
X ................
X ................
X ................
X ................
ENDCHAR
STARTCHAR parenleft
ENCODING 40
SWIDTH 500 0
DWIDTH 12 0
BBX 12 24 0 -5
BITMAP
X ................
X ........**......
X .......**.......
X ......**........
X ......**........
X .....**.........
X .....**.........
X .....**.........
X .....**.........
X .....**.........
X .....**.........
X .....**.........
X ......**........
X ......**........
X .......**.......
X ........**......
ENDCHAR
STARTCHAR parenright
ENCODING 41
SWIDTH 500 0
DWIDTH 12 0
BBX 12 24 0 -5
BITMAP
X ................
X .....**.........
X ......**........
X .......**.......
X .......**.......
X ........**......
X ........**......
X ........**......
X ........**......
X ........**......
X ........**......
X ........**......
X .......**.......
X .......**.......
X ......**........
X .....**.........
ENDCHAR
STARTCHAR asterisk
ENCODING 42
SWIDTH 500 0
DWIDTH 12 0
BBX 12 24 0 -5
BITMAP
X ................
X ................
X ................
X ...**.....**....
X ....**...**.....
X .....**.**......
X ......***.......
X ..***********...
X ......***.......
X .....**.**......
X ....**...**.....
X ...**.....**....
X ................
X ................
X ................
X ................
ENDCHAR
STARTCHAR plus
ENCODING 43
SWIDTH 500 0
DWIDTH 12 0
BBX 12 24 0 -5
BITMAP
X ................
X ................
X ................
X .......**.......
X .......**.......
X .......**.......
X .......**.......
X ...**********...
X .......**.......
X .......**.......
X .......**.......
X .......**.......
X ................
X ................
X ................
X ................
ENDCHAR
STARTCHAR comma
ENCODING 44
SWIDTH 500 0
DWIDTH 12 0
BBX 12 24 0 -5
BITMAP
X ................
X ................
X ................
X ................
X ................
X ................
X ................
X .......**.......
X .......**.......
X .......**.......
X .......**.......
X ......**........
X ................
X ................
X ................
X ................
ENDCHAR
STARTCHAR hyphen
ENCODING 45
SWIDTH 500 0
DWIDTH 12 0
BBX 12 24 0 -5
BITMAP
X ................
X ................
X ................
X ................
X ................
X ................
X ................
X ...**********...
X ................
X ................
X ................
X ................
X ................
X ................
X ................
X ................
ENDCHAR
STARTCHAR period
ENCODING 46
SWIDTH 500 0
DWIDTH 12 0
BBX 12 24 0 -5
BITMAP
X ................
X ................
X ................
X ................
X ................
X ................
X ................
X .......**.......
X .......**.......
X .......**.......
X ................
X ................
X ................
X ................
X ................
X ................
ENDCHAR
STARTCHAR slash
ENCODING 47
SWIDTH 500 0
DWIDTH 12 0
BBX 12 24 0 -5
BITMAP
X ................
X ..........**....
X ..........**....
X .........**.....
X .........**.....
X ........**......
X ........**......
X .......**.......
X .......**.......
X ......**........
X ......**........
X .....**.........
X .....**.........
X ....**..........
X ....**..........
X ................
ENDCHAR
STARTCHAR zero
ENCODING 48
SWIDTH 500 0
DWIDTH 12 0
BBX 12 24 0 -5
BITMAP
X ................
X .....******.....
X ....**....**....
X ...**......**...
X ...**......**...
X ...**.....***...
X ...**....****...
X ...**...**.**...
X ...**..**..**...
X ...**.**...**...
X ...****....**...
X ...***.....**...
X ...**......**...
X ...**......**...
X ....**....**....
X .....******.....
ENDCHAR
STARTCHAR one
ENCODING 49
SWIDTH 500 0
DWIDTH 12 0
BBX 12 24 0 -5
BITMAP
X ................
X .......**.......
X ......***.......
X .....****.......
X ....**.**.......
X .......**.......
X .......**.......
X .......**.......
X .......**.......
X .......**.......
X .......**.......
X .......**.......
X .......**.......
X .......**.......
X .......**.......
X ....********....
ENDCHAR
STARTCHAR two
ENCODING 50
SWIDTH 500 0
DWIDTH 12 0
BBX 12 24 0 -5
BITMAP
X ................
X .....******.....
X ....**....**....
X ...**......**...
X ...**......**...
X ...**......**...
X ...........**...
X ..........**....
X .........**.....
X ........**......
X .......**.......
X ......**........
X .....**.........
X ....**..........
X ...**...........
X ...**********...
ENDCHAR
STARTCHAR three
ENCODING 51
SWIDTH 500 0
DWIDTH 12 0
BBX 12 24 0 -5
BITMAP
X ................
X .....******.....
X ....**....**....
X ...**......**...
X ...........**...
X ...........**...
X ...........**...
X ..........**....
X ......*****.....
X ..........**....
X ...........**...
X ...........**...
X ...........**...
X ...**......**...
X ....**....**....
X .....******.....
ENDCHAR
STARTCHAR four
ENCODING 52
SWIDTH 500 0
DWIDTH 12 0
BBX 12 24 0 -5
BITMAP
X ................
X ...........**...
X ..........***...
X .........****...
X ........**.**...
X .......**..**...
X ......**...**...
X .....**....**...
X ....**.....**...
X ...**......**...
X ...**......**...
X ...**......**...
X ...**********...
X ...........**...
X ...........**...
X ...........**...
ENDCHAR
STARTCHAR five
ENCODING 53
SWIDTH 500 0
DWIDTH 12 0
BBX 12 24 0 -5
BITMAP
X ................
X ...**********...
X ...**...........
X ...**...........
X ...**...........
X ...**...........
X ...**...........
X ...********.....
X ..........**....
X ...........**...
X ...........**...
X ...........**...
X ...........**...
X ...**......**...
X ....**....**....
X .....******.....
ENDCHAR
STARTCHAR six
ENCODING 54
SWIDTH 500 0
DWIDTH 12 0
BBX 12 24 0 -5
BITMAP
X ................
X .....*******....
X ....**..........
X ...**...........
X ...**...........
X ...**...........
X ...**...........
X ...********.....
X ...**.....**....
X ...**......**...
X ...**......**...
X ...**......**...
X ...**......**...
X ...**......**...
X ....**....**....
X .....******.....
ENDCHAR
STARTCHAR seven
ENCODING 55
SWIDTH 500 0
DWIDTH 12 0
BBX 12 24 0 -5
BITMAP
X ................
X ...**********...
X ...**......**...
X ...**......**...
X ...........**...
X ..........**....
X ..........**....
X .........**.....
X .........**.....
X ........**......
X ........**......
X .......**.......
X .......**.......
X .......**.......
X .......**.......
X .......**.......
ENDCHAR
STARTCHAR eight
ENCODING 56
SWIDTH 500 0
DWIDTH 12 0
BBX 12 24 0 -5
BITMAP
X ................
X .....******.....
X ....**....**....
X ...**......**...
X ...**......**...
X ...**......**...
X ...**......**...
X ....**....**....
X .....******.....
X ....**....**....
X ...**......**...
X ...**......**...
X ...**......**...
X ...**......**...
X ....**....**....
X .....******.....
ENDCHAR
STARTCHAR nine
ENCODING 57
SWIDTH 500 0
DWIDTH 12 0
BBX 12 24 0 -5
BITMAP
X ................
X .....******.....
X ....**....**....
X ...**......**...
X ...**......**...
X ...**......**...
X ...**......**...
X ...**......**...
X ....**.....**...
X .....********...
X ...........**...
X ...........**...
X ...........**...
X ...........**...
X ..........**....
X ....*******.....
ENDCHAR
STARTCHAR colon
ENCODING 58
SWIDTH 500 0
DWIDTH 12 0
BBX 12 24 0 -5
BITMAP
X ................
X ................
X ................
X .......**.......
X .......**.......
X .......**.......
X ................
X ................
X ................
X ................
X .......**.......
X .......**.......
X .......**.......
X ................
X ................
X ................
ENDCHAR
STARTCHAR semicolon
ENCODING 59
SWIDTH 500 0
DWIDTH 12 0
BBX 12 24 0 -5
BITMAP
X ................
X ................
X ................
X ................
X .......**.......
X .......**.......
X .......**.......
X ................
X ................
X ................
X .......**.......
X .......**.......
X .......**.......
X .......**.......
X ......**........
X ................
ENDCHAR
STARTCHAR less
ENCODING 60
SWIDTH 500 0
DWIDTH 12 0
BBX 12 24 0 -5
BITMAP
X ................
X ..........**....
X .........**.....
X ........**......
X .......**.......
X ......**........
X .....**.........
X ....**..........
X ...**...........
X ....**..........
X .....**.........
X ......**........
X .......**.......
X ........**......
X .........**.....
X ..........**....
ENDCHAR
STARTCHAR equal
ENCODING 61
SWIDTH 500 0
DWIDTH 12 0
BBX 12 24 0 -5
BITMAP
X ................
X ................
X ................
X ................
X ................
X ...**********...
X ................
X ................
X ................
X ................
X ...**********...
X ................
X ................
X ................
X ................
X ................
ENDCHAR
STARTCHAR greater
ENCODING 62
SWIDTH 500 0
DWIDTH 12 0
BBX 12 24 0 -5
BITMAP
X ................
X ...**...........
X ....**..........
X .....**.........
X ......**........
X .......**.......
X ........**......
X .........**.....
X ..........**....
X .........**.....
X ........**......
X .......**.......
X ......**........
X .....**.........
X ....**..........
X ...**...........
ENDCHAR
STARTCHAR question
ENCODING 63
SWIDTH 500 0
DWIDTH 12 0
BBX 12 24 0 -5
BITMAP
X ................
X .....******.....
X ....**....**....
X ...**......**...
X ...**......**...
X ...**......**...
X ..........**....
X .........**.....
X ........**......
X .......**.......
X .......**.......
X ................
X ................
X .......**.......
X .......**.......
X .......**.......
ENDCHAR
STARTCHAR at
ENCODING 64
SWIDTH 500 0
DWIDTH 12 0
BBX 12 24 0 -5
BITMAP
X ................
X ....*******.....
X ...**.....**....
X ..**.......**...
X ..**....*****...
X ..**...**..**...
X ..**..**...**...
X ..**..**...**...
X ..**..**...**...
X ..**..**...**...
X ..**..**...**...
X ..**...**..**...
X ..**....*****...
X ..**............
X ...**...........
X ....*********...
ENDCHAR
STARTCHAR A
ENCODING 65
SWIDTH 500 0
DWIDTH 12 0
BBX 12 24 0 -5
BITMAP
X ................
X .....******.....
X ....**....**....
X ...**......**...
X ...**......**...
X ...**......**...
X ...**......**...
X ...**......**...
X ...**......**...
X ...**********...
X ...**......**...
X ...**......**...
X ...**......**...
X ...**......**...
X ...**......**...
X ...**......**...
ENDCHAR
STARTCHAR B
ENCODING 66
SWIDTH 500 0
DWIDTH 12 0
BBX 12 24 0 -5
BITMAP
X ................
X ...********.....
X ...**.....**....
X ...**......**...
X ...**......**...
X ...**......**...
X ...**.....**....
X ...********.....
X ...**.....**....
X ...**......**...
X ...**......**...
X ...**......**...
X ...**......**...
X ...**......**...
X ...**.....**....
X ...********.....
ENDCHAR
STARTCHAR C
ENCODING 67
SWIDTH 500 0
DWIDTH 12 0
BBX 12 24 0 -5
BITMAP
X ................
X .....******.....
X ....**....**....
X ...**......**...
X ...**......**...
X ...**...........
X ...**...........
X ...**...........
X ...**...........
X ...**...........
X ...**...........
X ...**...........
X ...**......**...
X ...**......**...
X ....**....**....
X .....******.....
ENDCHAR
STARTCHAR D
ENCODING 68
SWIDTH 500 0
DWIDTH 12 0
BBX 12 24 0 -5
BITMAP
X ................
X ...********.....
X ...**.....**....
X ...**......**...
X ...**......**...
X ...**......**...
X ...**......**...
X ...**......**...
X ...**......**...
X ...**......**...
X ...**......**...
X ...**......**...
X ...**......**...
X ...**......**...
X ...**.....**....
X ...********.....
ENDCHAR
STARTCHAR E
ENCODING 69
SWIDTH 500 0
DWIDTH 12 0
BBX 12 24 0 -5
BITMAP
X ................
X ...**********...
X ...**...........
X ...**...........
X ...**...........
X ...**...........
X ...**...........
X ...**...........
X ...********.....
X ...**...........
X ...**...........
X ...**...........
X ...**...........
X ...**...........
X ...**...........
X ...**********...
ENDCHAR
STARTCHAR F
ENCODING 70
SWIDTH 500 0
DWIDTH 12 0
BBX 12 24 0 -5
BITMAP
X ................
X ...**********...
X ...**...........
X ...**...........
X ...**...........
X ...**...........
X ...**...........
X ...**...........
X ...********.....
X ...**...........
X ...**...........
X ...**...........
X ...**...........
X ...**...........
X ...**...........
X ...**...........
ENDCHAR
STARTCHAR G
ENCODING 71
SWIDTH 500 0
DWIDTH 12 0
BBX 12 24 0 -5
BITMAP
X ................
X .....******.....
X ....**....**....
X ...**......**...
X ...**......**...
X ...**...........
X ...**...........
X ...**...........
X ...**...*****...
X ...**......**...
X ...**......**...
X ...**......**...
X ...**......**...
X ...**......**...
X ....**....**....
X .....******.....
ENDCHAR
STARTCHAR H
ENCODING 72
SWIDTH 500 0
DWIDTH 12 0
BBX 12 24 0 -5
BITMAP
X ................
X ...**......**...
X ...**......**...
X ...**......**...
X ...**......**...
X ...**......**...
X ...**......**...
X ...**......**...
X ...**********...
X ...**......**...
X ...**......**...
X ...**......**...
X ...**......**...
X ...**......**...
X ...**......**...
X ...**......**...
ENDCHAR
STARTCHAR I
ENCODING 73
SWIDTH 500 0
DWIDTH 12 0
BBX 12 24 0 -5
BITMAP
X ................
X ................
X ................
X ................
X ...******.......
X .....**.........
X .....**.........
X .....**.........
X .....**.........
X .....**.........
X .....**.........
X .....**.........
X .....**.........
X .....**.........
X .....**.........
X .....**.........
X .....**.........
X .....**.........
X ...******.......
X ................
X ................
X ................
X ................
X ................
ENDCHAR
STARTCHAR J
ENCODING 74
SWIDTH 500 0
DWIDTH 12 0
BBX 12 24 0 -5
BITMAP
X ................
X ................
X ................
X ................
X ......******....
X ........**......
X ........**......
X ........**......
X ........**......
X ........**......
X ........**......
X ........**......
X ........**......
X ........**......
X .**.....**......
X .**.....**......
X .**.....**......
X ..**...**.......
X ...*****........
X ................
X ................
X ................
X ................
X ................
ENDCHAR
STARTCHAR K
ENCODING 75
SWIDTH 500 0
DWIDTH 12 0
BBX 12 24 0 -5
BITMAP
X ................
X ................
X ................
X ................
X .**......**.....
X .**.....**......
X .**....**.......
X .**...**........
X .**..**.........
X .**.**..........
X .****...........
X .***............
X .****...........
X .**.**..........
X .**..**.........
X .**...**........
X .**....**.......
X .**.....**......
X .**......**.....
X ................
X ................
X ................
X ................
X ................
ENDCHAR
STARTCHAR L
ENCODING 76
SWIDTH 500 0
DWIDTH 12 0
BBX 12 24 0 -5
BITMAP
X ................
X ................
X ................
X ................
X .**.............
X .**.............
X .**.............
X .**.............
X .**.............
X .**.............
X .**.............
X .**.............
X .**.............
X .**.............
X .**.............
X .**.............
X .**.............
X .**.............
X .**********.....
X ................
X ................
X ................
X ................
X ................
ENDCHAR
STARTCHAR M
ENCODING 77
SWIDTH 500 0
DWIDTH 12 0
BBX 12 24 0 -5
BITMAP
X ................
X ................
X ................
X ................
X *.........*.....
X **.......**.....
X ***.....***.....
X ****...****.....
X **.**.**.**.....
X **..***..**.....
X **...*...**.....
X **.......**.....
X **.......**.....
X **.......**.....
X **.......**.....
X **.......**.....
X **.......**.....
X **.......**.....
X **.......**.....
X ................
X ................
X ................
X ................
X ................
ENDCHAR
STARTCHAR N
ENCODING 78
SWIDTH 500 0
DWIDTH 12 0
BBX 12 24 0 -5
BITMAP
X ................
X ................
X ................
X ................
X .**......**.....
X .**......**.....
X .**......**.....
X .**......**.....
X .***.....**.....
X .****....**.....
X .**.**...**.....
X .**..**..**.....
X .**...**.**.....
X .**....****.....
X .**.....***.....
X .**......**.....
X .**......**.....
X .**......**.....
X .**......**.....
X ................
X ................
X ................
X ................
X ................
ENDCHAR
STARTCHAR O
ENCODING 79
SWIDTH 500 0
DWIDTH 12 0
BBX 12 24 0 -5
BITMAP
X ................
X ................
X ................
X ................
X ...******.......
X ..**....**......
X .**......**.....
X .**......**.....
X .**......**.....
X .**......**.....
X .**......**.....
X .**......**.....
X .**......**.....
X .**......**.....
X .**......**.....
X .**......**.....
X .**......**.....
X ..**....**......
X ...******.......
X ................
X ................
X ................
X ................
X ................
ENDCHAR
STARTCHAR P
ENCODING 80
SWIDTH 500 0
DWIDTH 12 0
BBX 12 24 0 -5
BITMAP
X ................
X ................
X ................
X ................
X .********.......
X .**.....**......
X .**......**.....
X .**......**.....
X .**......**.....
X .**......**.....
X .**.....**......
X .********.......
X .**.............
X .**.............
X .**.............
X .**.............
X .**.............
X .**.............
X .**.............
X ................
X ................
X ................
X ................
X ................
ENDCHAR
STARTCHAR Q
ENCODING 81
SWIDTH 500 0
DWIDTH 12 0
BBX 12 24 0 -5
BITMAP
X ................
X ................
X ................
X ................
X ...******.......
X ..**....**......
X .**......**.....
X .**......**.....
X .**......**.....
X .**......**.....
X .**......**.....
X .**......**.....
X .**......**.....
X .**......**.....
X .**......**.....
X .**......**.....
X .**..**..**.....
X ..**..****......
X ...******.......
X ........**......
X .........**.....
X ................
X ................
X ................
ENDCHAR
STARTCHAR R
ENCODING 82
SWIDTH 500 0
DWIDTH 12 0
BBX 12 24 0 -5
BITMAP
X ................
X ................
X ................
X ................
X .********.......
X .**.....**......
X .**......**.....
X .**......**.....
X .**......**.....
X .**......**.....
X .**.....**......
X .********.......
X .****...........
X .**.**..........
X .**..**.........
X .**...**........
X .**....**.......
X .**.....**......
X .**......**.....
X ................
X ................
X ................
X ................
X ................
ENDCHAR
STARTCHAR S
ENCODING 83
SWIDTH 500 0
DWIDTH 12 0
BBX 12 24 0 -5
BITMAP
X ................
X ................
X ................
X ................
X ...******.......
X ..**....**......
X .**......**.....
X .**.............
X .**.............
X .**.............
X ..**............
X ...******.......
X ........**......
X .........**.....
X .........**.....
X .........**.....
X .**......**.....
X ..**....**......
X ...******.......
X ................
X ................
X ................
X ................
X ................
ENDCHAR
STARTCHAR T
ENCODING 84
SWIDTH 500 0
DWIDTH 12 0
BBX 12 24 0 -5
BITMAP
X ................
X ................
X ................
X ................
X .**********.....
X .....**.........
X .....**.........
X .....**.........
X .....**.........
X .....**.........
X .....**.........
X .....**.........
X .....**.........
X .....**.........
X .....**.........
X .....**.........
X .....**.........
X .....**.........
X .....**.........
X ................
X ................
X ................
X ................
X ................
ENDCHAR
STARTCHAR U
ENCODING 85
SWIDTH 500 0
DWIDTH 12 0
BBX 12 24 0 -5
BITMAP
X ................
X ................
X ................
X ................
X .**......**.....
X .**......**.....
X .**......**.....
X .**......**.....
X .**......**.....
X .**......**.....
X .**......**.....
X .**......**.....
X .**......**.....
X .**......**.....
X .**......**.....
X .**......**.....
X .**......**.....
X ..**....**......
X ...******.......
X ................
X ................
X ................
X ................
X ................
ENDCHAR
STARTCHAR V
ENCODING 86
SWIDTH 500 0
DWIDTH 12 0
BBX 12 24 0 -5
BITMAP
X ................
X ................
X ................
X ................
X .**......**.....
X .**......**.....
X .**......**.....
X .**......**.....
X ..**....**......
X ..**....**......
X ..**....**......
X ..**....**......
X ...**..**.......
X ...**..**.......
X ...**..**.......
X ....****........
X ....****........
X .....**.........
X .....**.........
X ................
X ................
X ................
X ................
X ................
ENDCHAR
STARTCHAR W
ENCODING 87
SWIDTH 500 0
DWIDTH 12 0
BBX 12 24 0 -5
BITMAP
X ................
X ................
X ................
X ................
X **.......**.....
X **.......**.....
X **.......**.....
X **.......**.....
X **.......**.....
X **.......**.....
X **.......**.....
X **.......**.....
X **...*...**.....
X **..***..**.....
X **.**.**.**.....
X ****...****.....
X ***.....***.....
X **.......**.....
X *.........*.....
X ................
X ................
X ................
X ................
X ................
ENDCHAR
STARTCHAR X
ENCODING 88
SWIDTH 500 0
DWIDTH 12 0
BBX 12 24 0 -5
BITMAP
X ................
X ................
X ................
X ................
X .**......**.....
X .**......**.....
X ..**....**......
X ..**....**......
X ...**..**.......
X ...**..**.......
X ....****........
X .....**.........
X ....****........
X ...**..**.......
X ...**..**.......
X ..**....**......
X ..**....**......
X .**......**.....
X .**......**.....
X ................
X ................
X ................
X ................
X ................
ENDCHAR
STARTCHAR Y
ENCODING 89
SWIDTH 500 0
DWIDTH 12 0
BBX 12 24 0 -5
BITMAP
X ................
X ................
X ................
X ................
X .**......**.....
X .**......**.....
X ..**....**......
X ..**....**......
X ...**..**.......
X ...**..**.......
X ....****........
X ....****........
X .....**.........
X .....**.........
X .....**.........
X .....**.........
X .....**.........
X .....**.........
X .....**.........
X ................
X ................
X ................
X ................
X ................
ENDCHAR
STARTCHAR Z
ENCODING 90
SWIDTH 500 0
DWIDTH 12 0
BBX 12 24 0 -5
BITMAP
X ................
X ................
X ................
X ................
X .**********.....
X .........**.....
X .........**.....
X .........**.....
X ........**......
X .......**.......
X ......**........
X .....**.........
X ....**..........
X ...**...........
X ..**............
X .**.............
X .**.............
X .**.............
X .**********.....
X ................
X ................
X ................
X ................
X ................
ENDCHAR
STARTCHAR bracketleft
ENCODING 91
SWIDTH 500 0
DWIDTH 12 0
BBX 12 24 0 -5
BITMAP
X ................
X ................
X ................
X ................
X ...*****........
X ...**...........
X ...**...........
X ...**...........
X ...**...........
X ...**...........
X ...**...........
X ...**...........
X ...**...........
X ...**...........
X ...**...........
X ...**...........
X ...**...........
X ...**...........
X ...*****........
X ................
X ................
X ................
X ................
X ................
ENDCHAR
STARTCHAR backslash
ENCODING 92
SWIDTH 500 0
DWIDTH 12 0
BBX 12 24 0 -5
BITMAP
X ................
X ................
X ................
X ................
X ................
X ..**............
X ..**............
X ...**...........
X ...**...........
X ....**..........
X ....**..........
X .....**.........
X .....**.........
X ......**........
X ......**........
X .......**.......
X .......**.......
X ........**......
X ........**......
X ................
X ................
X ................
X ................
X ................
ENDCHAR
STARTCHAR bracketright
ENCODING 93
SWIDTH 500 0
DWIDTH 12 0
BBX 12 24 0 -5
BITMAP
X ................
X ................
X ................
X ................
X ...*****........
X ......**........
X ......**........
X ......**........
X ......**........
X ......**........
X ......**........
X ......**........
X ......**........
X ......**........
X ......**........
X ......**........
X ......**........
X ......**........
X ...*****........
X ................
X ................
X ................
X ................
X ................
ENDCHAR
STARTCHAR asciicircum
ENCODING 94
SWIDTH 500 0
DWIDTH 12 0
BBX 12 24 0 -5
BITMAP
X ................
X ................
X .....**.........
X ....****........
X ...**..**.......
X ..**....**......
X .**......**.....
X ................
X ................
X ................
X ................
X ................
X ................
X ................
X ................
X ................
X ................
X ................
X ................
X ................
X ................
X ................
X ................
X ................
ENDCHAR
STARTCHAR underscore
ENCODING 95
SWIDTH 500 0
DWIDTH 12 0
BBX 12 24 0 -5
BITMAP
X ................
X ................
X ................
X ................
X ................
X ................
X ................
X ................
X ................
X ................
X ................
X ................
X ................
X ................
X ................
X ................
X ................
X ................
X ................
X ................
X .**********.....
X ................
X ................
X ................
ENDCHAR
STARTCHAR grave
ENCODING 96
SWIDTH 500 0
DWIDTH 12 0
BBX 12 24 0 -5
BITMAP
X ...**...........
X ....**..........
X .....**.........
X ................
X ................
X ................
X ................
X ................
X ................
X ................
X ................
X ................
X ................
X ................
X ................
X ................
X ................
X ................
X ................
X ................
X ................
X ................
X ................
X ................
ENDCHAR
STARTCHAR a
ENCODING 97
SWIDTH 500 0
DWIDTH 12 0
BBX 12 24 0 -5
BITMAP
X ................
X ................
X ................
X ................
X ................
X ................
X ................
X ................
X ..*******.......
X ........**......
X .........**.....
X .........**.....
X ...********.....
X ..**.....**.....
X .**......**.....
X .**......**.....
X .**......**.....
X ..**.....**.....
X ...********.....
X ................
X ................
X ................
X ................
X ................
ENDCHAR
STARTCHAR b
ENCODING 98
SWIDTH 500 0
DWIDTH 12 0
BBX 12 24 0 -5
BITMAP
X ................
X ................
X ................
X ................
X .**.............
X .**.............
X .**.............
X .**.............
X .********.......
X .**.....**......
X .**......**.....
X .**......**.....
X .**......**.....
X .**......**.....
X .**......**.....
X .**......**.....
X .**......**.....
X .**.....**......
X .********.......
X ................
X ................
X ................
X ................
X ................
ENDCHAR
STARTCHAR c
ENCODING 99
SWIDTH 500 0
DWIDTH 12 0
BBX 12 24 0 -5
BITMAP
X ................
X ................
X ................
X ................
X ................
X ................
X ................
X ................
X ...******.......
X ..**....**......
X .**......**.....
X .**.............
X .**.............
X .**.............
X .**.............
X .**.............
X .**......**.....
X ..**....**......
X ...******.......
X ................
X ................
X ................
X ................
X ................
ENDCHAR
STARTCHAR d
ENCODING 100
SWIDTH 500 0
DWIDTH 12 0
BBX 12 24 0 -5
BITMAP
X ................
X ................
X ................
X ................
X .........**.....
X .........**.....
X .........**.....
X .........**.....
X ...********.....
X ..**.....**.....
X .**......**.....
X .**......**.....
X .**......**.....
X .**......**.....
X .**......**.....
X .**......**.....
X .**......**.....
X ..**.....**.....
X ...********.....
X ................
X ................
X ................
X ................
X ................
ENDCHAR
STARTCHAR e
ENCODING 101
SWIDTH 500 0
DWIDTH 12 0
BBX 12 24 0 -5
BITMAP
X ................
X ................
X ................
X ................
X ................
X ................
X ................
X ................
X ...******.......
X ..**....**......
X .**......**.....
X .**......**.....
X .**......**.....
X .**********.....
X .**.............
X .**.............
X .**.............
X ..**.....**.....
X ...*******......
X ................
X ................
X ................
X ................
X ................
ENDCHAR
STARTCHAR f
ENCODING 102
SWIDTH 500 0
DWIDTH 12 0
BBX 12 24 0 -5
BITMAP
X ................
X ................
X ................
X ................
X ......*****.....
X .....**.........
X .....**.........
X .....**.........
X ..********......
X .....**.........
X .....**.........
X .....**.........
X .....**.........
X .....**.........
X .....**.........
X .....**.........
X .....**.........
X .....**.........
X .....**.........
X ................
X ................
X ................
X ................
X ................
ENDCHAR
STARTCHAR g
ENCODING 103
SWIDTH 500 0
DWIDTH 12 0
BBX 12 24 0 -5
BITMAP
X ................
X ................
X ................
X ................
X ................
X ................
X ................
X ................
X ...********.....
X ..**.....**.....
X .**......**.....
X .**......**.....
X .**......**.....
X .**......**.....
X .**......**.....
X .**......**.....
X .**......**.....
X ..**....***.....
X ...********.....
X .........**.....
X .........**.....
X ........**......
X ..*******.......
X ................
ENDCHAR
STARTCHAR h
ENCODING 104
SWIDTH 500 0
DWIDTH 12 0
BBX 12 24 0 -5
BITMAP
X ................
X ................
X ................
X ................
X .**.............
X .**.............
X .**.............
X .**.............
X .********.......
X .**.....**......
X .**......**.....
X .**......**.....
X .**......**.....
X .**......**.....
X .**......**.....
X .**......**.....
X .**......**.....
X .**......**.....
X .**......**.....
X ................
X ................
X ................
X ................
X ................
ENDCHAR
STARTCHAR i
ENCODING 105
SWIDTH 500 0
DWIDTH 12 0
BBX 12 24 0 -5
BITMAP
X ................
X ................
X ................
X ................
X .....**.........
X .....**.........
X .....**.........
X ................
X ...****.........
X .....**.........
X .....**.........
X .....**.........
X .....**.........
X .....**.........
X .....**.........
X .....**.........
X .....**.........
X .....**.........
X ...******.......
X ................
X ................
X ................
X ................
X ................
ENDCHAR
STARTCHAR j
ENCODING 106
SWIDTH 500 0
DWIDTH 12 0
BBX 12 24 0 -5
BITMAP
X ................
X ................
X ................
X ................
X ........**......
X ........**......
X ........**......
X ................
X ......****......
X ........**......
X ........**......
X ........**......
X ........**......
X ........**......
X ........**......
X ........**......
X ........**......
X ........**......
X ........**......
X ..**....**......
X ..**....**......
X ...**..**.......
X ....****........
X ................
ENDCHAR
STARTCHAR k
ENCODING 107
SWIDTH 500 0
DWIDTH 12 0
BBX 12 24 0 -5
BITMAP
X ................
X ................
X ................
X ................
X ..**............
X ..**............
X ..**............
X ..**............
X ..**.....**.....
X ..**....**......
X ..**...**.......
X ..**..**........
X ..**.**.........
X ..****..........
X ..**.**.........
X ..**..**........
X ..**...**.......
X ..**....**......
X ..**.....**.....
X ................
X ................
X ................
X ................
X ................
ENDCHAR
STARTCHAR l
ENCODING 108
SWIDTH 500 0
DWIDTH 12 0
BBX 12 24 0 -5
BITMAP
X ................
X ................
X ................
X ................
X ...****.........
X .....**.........
X .....**.........
X .....**.........
X .....**.........
X .....**.........
X .....**.........
X .....**.........
X .....**.........
X .....**.........
X .....**.........
X .....**.........
X .....**.........
X .....**.........
X ...******.......
X ................
X ................
X ................
X ................
X ................
ENDCHAR
STARTCHAR m
ENCODING 109
SWIDTH 500 0
DWIDTH 12 0
BBX 12 24 0 -5
BITMAP
X ................
X ................
X ................
X ................
X ................
X ................
X ................
X ................
X .********.......
X .**..**.**......
X .**..**..**.....
X .**..**..**.....
X .**..**..**.....
X .**..**..**.....
X .**..**..**.....
X .**..**..**.....
X .**..**..**.....
X .**..**..**.....
X .**..**..**.....
X ................
X ................
X ................
X ................
X ................
ENDCHAR
STARTCHAR n
ENCODING 110
SWIDTH 500 0
DWIDTH 12 0
BBX 12 24 0 -5
BITMAP
X ................
X ................
X ................
X ................
X ................
X ................
X ................
X ................
X .********.......
X .**.....**......
X .**......**.....
X .**......**.....
X .**......**.....
X .**......**.....
X .**......**.....
X .**......**.....
X .**......**.....
X .**......**.....
X .**......**.....
X ................
X ................
X ................
X ................
X ................
ENDCHAR
STARTCHAR o
ENCODING 111
SWIDTH 500 0
DWIDTH 12 0
BBX 12 24 0 -5
BITMAP
X ................
X ................
X ................
X ................
X ................
X ................
X ................
X ................
X ...******.......
X ..**....**......
X .**......**.....
X .**......**.....
X .**......**.....
X .**......**.....
X .**......**.....
X .**......**.....
X .**......**.....
X ..**....**......
X ...******.......
X ................
X ................
X ................
X ................
X ................
ENDCHAR
STARTCHAR p
ENCODING 112
SWIDTH 500 0
DWIDTH 12 0
BBX 12 24 0 -5
BITMAP
X ................
X ................
X ................
X ................
X ................
X ................
X ................
X ................
X .********.......
X .**.....**......
X .**......**.....
X .**......**.....
X .**......**.....
X .**......**.....
X .**......**.....
X .**......**.....
X .**......**.....
X .**.....**......
X .********.......
X .**.............
X .**.............
X .**.............
X .**.............
X ................
ENDCHAR
STARTCHAR q
ENCODING 113
SWIDTH 500 0
DWIDTH 12 0
BBX 12 24 0 -5
BITMAP
X ................
X ................
X ................
X ................
X ................
X ................
X ................
X ................
X ...********.....
X ..**.....**.....
X .**......**.....
X .**......**.....
X .**......**.....
X .**......**.....
X .**......**.....
X .**......**.....
X .**......**.....
X ..**.....**.....
X ...********.....
X .........**.....
X .........**.....
X .........**.....
X .........**.....
X ................
ENDCHAR
STARTCHAR r
ENCODING 114
SWIDTH 500 0
DWIDTH 12 0
BBX 12 24 0 -5
BITMAP
X ................
X ................
X ................
X ................
X ................
X ................
X ................
X ................
X .**..******.....
X .**.**..........
X .****...........
X .***............
X .**.............
X .**.............
X .**.............
X .**.............
X .**.............
X .**.............
X .**.............
X ................
X ................
X ................
X ................
X ................
ENDCHAR
STARTCHAR s
ENCODING 115
SWIDTH 500 0
DWIDTH 12 0
BBX 12 24 0 -5
BITMAP
X ................
X ................
X ................
X ................
X ................
X ................
X ................
X ................
X ..********......
X .**......**.....
X .**.............
X .**.............
X .**.............
X ..********......
X .........**.....
X .........**.....
X .........**.....
X .**......**.....
X ..********......
X ................
X ................
X ................
X ................
X ................
ENDCHAR
STARTCHAR t
ENCODING 116
SWIDTH 500 0
DWIDTH 12 0
BBX 12 24 0 -5
BITMAP
X ................
X ................
X ................
X ................
X ....**..........
X ....**..........
X ....**..........
X ....**..........
X .********.......
X ....**..........
X ....**..........
X ....**..........
X ....**..........
X ....**..........
X ....**..........
X ....**..........
X ....**..........
X ....**..........
X .....*****......
X ................
X ................
X ................
X ................
X ................
ENDCHAR
STARTCHAR u
ENCODING 117
SWIDTH 500 0
DWIDTH 12 0
BBX 12 24 0 -5
BITMAP
X ................
X ................
X ................
X ................
X ................
X ................
X ................
X ................
X .**......**.....
X .**......**.....
X .**......**.....
X .**......**.....
X .**......**.....
X .**......**.....
X .**......**.....
X .**......**.....
X .**......**.....
X ..**.....**.....
X ...********.....
X ................
X ................
X ................
X ................
X ................
ENDCHAR
STARTCHAR v
ENCODING 118
SWIDTH 500 0
DWIDTH 12 0
BBX 12 24 0 -5
BITMAP
X ................
X ................
X ................
X ................
X ................
X ................
X ................
X ................
X .**......**.....
X .**......**.....
X .**......**.....
X ..**....**......
X ..**....**......
X ...**..**.......
X ...**..**.......
X ....****........
X ....****........
X .....**.........
X .....**.........
X ................
X ................
X ................
X ................
X ................
ENDCHAR
STARTCHAR w
ENCODING 119
SWIDTH 500 0
DWIDTH 12 0
BBX 12 24 0 -5
BITMAP
X ................
X ................
X ................
X ................
X ................
X ................
X ................
X ................
X .**......**.....
X .**......**.....
X .**......**.....
X .**......**.....
X .**..**..**.....
X .**..**..**.....
X .**..**..**.....
X .**..**..**.....
X .**..**..**.....
X .**..**..**.....
X ..********......
X ................
X ................
X ................
X ................
X ................
ENDCHAR
STARTCHAR x
ENCODING 120
SWIDTH 500 0
DWIDTH 12 0
BBX 12 24 0 -5
BITMAP
X ................
X ................
X ................
X ................
X ................
X ................
X ................
X ................
X .**......**.....
X .**......**.....
X ..**....**......
X ...**..**.......
X ....****........
X .....**.........
X ....****........
X ...**..**.......
X ..**....**......
X .**......**.....
X .**......**.....
X ................
X ................
X ................
X ................
X ................
ENDCHAR
STARTCHAR y
ENCODING 121
SWIDTH 500 0
DWIDTH 12 0
BBX 12 24 0 -5
BITMAP
X ................
X ................
X ................
X ................
X ................
X ................
X ................
X ................
X .**......**.....
X .**......**.....
X .**......**.....
X .**......**.....
X .**......**.....
X .**......**.....
X .**......**.....
X .**......**.....
X .**......**.....
X ..**....***.....
X ...********.....
X .........**.....
X .........**.....
X ........**......
X ..*******.......
X ................
ENDCHAR
STARTCHAR z
ENCODING 122
SWIDTH 500 0
DWIDTH 12 0
BBX 12 24 0 -5
BITMAP
X ................
X ................
X ................
X ................
X ................
X ................
X ................
X ................
X .**********.....
X .........**.....
X ........**......
X .......**.......
X ......**........
X .....**.........
X ....**..........
X ...**...........
X ..**............
X .**.............
X .**********.....
X ................
X ................
X ................
X ................
X ................
ENDCHAR
STARTCHAR braceleft
ENCODING 123
SWIDTH 500 0
DWIDTH 12 0
BBX 12 24 0 -5
BITMAP
X ................
X ................
X ................
X ................
X ......***.......
X .....**.........
X ....**..........
X ....**..........
X ....**..........
X ....**..........
X ....**..........
X ..***...........
X ....**..........
X ....**..........
X ....**..........
X ....**..........
X ....**..........
X .....**.........
X ......***.......
X ................
X ................
X ................
X ................
X ................
ENDCHAR
STARTCHAR bar
ENCODING 124
SWIDTH 500 0
DWIDTH 12 0
BBX 12 24 0 -5
BITMAP
X ................
X ................
X ................
X ................
X .....**.........
X .....**.........
X .....**.........
X .....**.........
X .....**.........
X .....**.........
X .....**.........
X .....**.........
X .....**.........
X .....**.........
X .....**.........
X .....**.........
X .....**.........
X .....**.........
X .....**.........
X ................
X ................
X ................
X ................
X ................
ENDCHAR
STARTCHAR braceright
ENCODING 125
SWIDTH 500 0
DWIDTH 12 0
BBX 12 24 0 -5
BITMAP
X ................
X ................
X ................
X ................
X ..***...........
X ....**..........
X .....**.........
X .....**.........
X .....**.........
X .....**.........
X .....**.........
X ......***.......
X .....**.........
X .....**.........
X .....**.........
X .....**.........
X .....**.........
X ....**..........
X ..***...........
X ................
X ................
X ................
X ................
X ................
ENDCHAR
STARTCHAR asciitilde
ENCODING 126
SWIDTH 500 0
DWIDTH 12 0
BBX 12 24 0 -5
BITMAP
X ................
X ................
X ..****...**.....
X .**..**..**.....
X .**..**..**.....
X .**...****......
X ................
X ................
X ................
X ................
X ................
X ................
X ................
X ................
X ................
X ................
X ................
X ................
X ................
X ................
X ................
X ................
X ................
X ................
ENDCHAR
STARTCHAR nbspace
ENCODING 160
SWIDTH 500 0
DWIDTH 12 0
BBX 12 24 0 -5
BITMAP
X ................
X ................
X ................
X ................
X ................
X ................
X ................
X ................
X ................
X ................
X ................
X ................
X ................
X ................
X ................
X ................
X ................
X ................
X ................
X ................
X ................
X ................
X ................
X ................
ENDCHAR
STARTCHAR exclamdown
ENCODING 161
SWIDTH 500 0
DWIDTH 12 0
BBX 12 24 0 -5
BITMAP
X ................
X ................
X ................
X ................
X .....**.........
X .....**.........
X .....**.........
X ................
X ................
X .....**.........
X .....**.........
X .....**.........
X .....**.........
X .....**.........
X .....**.........
X .....**.........
X .....**.........
X .....**.........
X .....**.........
X ................
X ................
X ................
X ................
X ................
ENDCHAR
STARTCHAR cent
ENCODING 162
SWIDTH 500 0
DWIDTH 12 0
BBX 12 24 0 -5
BITMAP
X ................
X ................
X ................
X ................
X ................
X ................
X .....**.........
X .....**.........
X ...******.......
X ..**.**.**......
X .**..**..**.....
X .**..**.........
X .**..**.........
X .**..**.........
X .**..**.........
X .**..**.........
X .**..**..**.....
X ..**.**.**......
X ...******.......
X .....**.........
X .....**.........
X ................
X ................
X ................
ENDCHAR
STARTCHAR sterling
ENCODING 163
SWIDTH 500 0
DWIDTH 12 0
BBX 12 24 0 -5
BITMAP
X ................
X ................
X ................
X ................
X ....****........
X ...**..**.......
X ..**....**......
X ..**............
X ..**............
X ..**............
X ..**............
X .*******........
X ..**............
X ..**............
X ..**............
X ..**............
X ..**.....**.....
X ..**.....**.....
X .**********.....
X ................
X ................
X ................
X ................
X ................
ENDCHAR
STARTCHAR currency
ENCODING 164
SWIDTH 500 0
DWIDTH 12 0
BBX 12 24 0 -5
BITMAP
X ................
X ................
X ................
X ................
X ................
X ................
X **.......**.....
X .**.....**......
X ..*******.......
X .**.....**......
X .**.....**......
X .**.....**......
X .**.....**......
X .**.....**......
X .**.....**......
X ..*******.......
X .**.....**......
X **.......**.....
X ................
X ................
X ................
X ................
X ................
X ................
ENDCHAR
STARTCHAR yen
ENCODING 165
SWIDTH 500 0
DWIDTH 12 0
BBX 12 24 0 -5
BITMAP
X ................
X ................
X ................
X ................
X .**......**.....
X .**......**.....
X ..**....**......
X ..**....**......
X ...**..**.......
X ...**..**.......
X ....****........
X .....**.........
X .....**.........
X ..********......
X .....**.........
X .....**.........
X ..********......
X .....**.........
X .....**.........
X ................
X ................
X ................
X ................
X ................
ENDCHAR
STARTCHAR brokenbar
ENCODING 166
SWIDTH 500 0
DWIDTH 12 0
BBX 12 24 0 -5
BITMAP
X ................
X ................
X ................
X ................
X .....**.........
X .....**.........
X .....**.........
X .....**.........
X .....**.........
X .....**.........
X ................
X ................
X ................
X .....**.........
X .....**.........
X .....**.........
X .....**.........
X .....**.........
X .....**.........
X ................
X ................
X ................
X ................
X ................
ENDCHAR
STARTCHAR section
ENCODING 167
SWIDTH 500 0
DWIDTH 12 0
BBX 12 24 0 -5
BITMAP
X ................
X ................
X ................
X ...*****........
X ..**...**.......
X ..**............
X ..**............
X ...****.........
X ..**..**........
X ..**...**.......
X ..**...**.......
X ..**...**.......
X ..**...**.......
X ...**..**.......
X ....****........
X .......**.......
X .......**.......
X ..**...**.......
X ...*****........
X ................
X ................
X ................
X ................
X ................
ENDCHAR
STARTCHAR dieresis
ENCODING 168
SWIDTH 500 0
DWIDTH 12 0
BBX 12 24 0 -5
BITMAP
X ...**..**.......
X ...**..**.......
X ...**..**.......
X ................
X ................
X ................
X ................
X ................
X ................
X ................
X ................
X ................
X ................
X ................
X ................
X ................
X ................
X ................
X ................
X ................
X ................
X ................
X ................
X ................
ENDCHAR
STARTCHAR copyright
ENCODING 169
SWIDTH 500 0
DWIDTH 12 0
BBX 12 24 0 -5
BITMAP
X ................
X ................
X ................
X ................
X ................
X ................
X ..*******.......
X .*.......*......
X *..*****..*.....
X *.**...**.*.....
X *.**...**.*.....
X *.**......*.....
X *.**......*.....
X *.**...**.*.....
X *.**...**.*.....
X *..*****..*.....
X .*.......*......
X ..*******.......
X ................
X ................
X ................
X ................
X ................
X ................
ENDCHAR
STARTCHAR ordfeminine
ENCODING 170
SWIDTH 500 0
DWIDTH 12 0
BBX 12 24 0 -5
BITMAP
X ................
X ..*******.......
X ........**......
X ........**......
X ..********......
X .**.....**......
X .**.....**......
X .**.....**......
X .**.....**......
X ..********......
X ................
X .*********......
X ................
X ................
X ................
X ................
X ................
X ................
X ................
X ................
X ................
X ................
X ................
X ................
ENDCHAR
STARTCHAR guillemotleft
ENCODING 171
SWIDTH 500 0
DWIDTH 12 0
BBX 12 24 0 -5
BITMAP
X ................
X ................
X ................
X ................
X ................
X ................
X ................
X ................
X .....**..**.....
X ....**..**......
X ...**..**.......
X ..**..**........
X .**..**.........
X **..**..........
X .**..**.........
X ..**..**........
X ...**..**.......
X ....**..**......
X .....**..**.....
X ................
X ................
X ................
X ................
X ................
ENDCHAR
STARTCHAR logicalnot
ENCODING 172
SWIDTH 500 0
DWIDTH 12 0
BBX 12 24 0 -5
BITMAP
X ................
X ................
X ................
X ................
X ................
X ................
X ................
X ................
X ................
X .**********.....
X .........**.....
X .........**.....
X .........**.....
X .........**.....
X .........**.....
X ................
X ................
X ................
X ................
X ................
X ................
X ................
X ................
X ................
ENDCHAR
STARTCHAR softhyphen
ENCODING 173
SWIDTH 500 0
DWIDTH 12 0
BBX 12 24 0 -5
BITMAP
X ................
X ................
X ................
X ................
X ................
X ................
X ................
X ................
X ................
X ................
X ................
X ..********......
X ................
X ................
X ................
X ................
X ................
X ................
X ................
X ................
X ................
X ................
X ................
X ................
ENDCHAR
STARTCHAR registered
ENCODING 174
SWIDTH 500 0
DWIDTH 12 0
BBX 12 24 0 -5
BITMAP
X ................
X ................
X ................
X ................
X ................
X ................
X ..*******.......
X .*.......*......
X *.******..*.....
X *.**...**.*.....
X *.**...**.*.....
X *.**...**.*.....
X *.******..*.....
X *.**.**...*.....
X *.**..**..*.....
X *.**...**.*.....
X .*.......*......
X ..*******.......
X ................
X ................
X ................
X ................
X ................
X ................
ENDCHAR
STARTCHAR macron
ENCODING 175
SWIDTH 500 0
DWIDTH 12 0
BBX 12 24 0 -5
BITMAP
X ................
X ..********......
X ................
X ................
X ................
X ................
X ................
X ................
X ................
X ................
X ................
X ................
X ................
X ................
X ................
X ................
X ................
X ................
X ................
X ................
X ................
X ................
X ................
X ................
ENDCHAR
STARTCHAR degree
ENCODING 176
SWIDTH 500 0
DWIDTH 12 0
BBX 12 24 0 -5
BITMAP
X ................
X ................
X ...*****........
X ..**...**.......
X ..**...**.......
X ..**...**.......
X ..**...**.......
X ...*****........
X ................
X ................
X ................
X ................
X ................
X ................
X ................
X ................
X ................
X ................
X ................
X ................
X ................
X ................
X ................
X ................
ENDCHAR
STARTCHAR plusminus
ENCODING 177
SWIDTH 500 0
DWIDTH 12 0
BBX 12 24 0 -5
BITMAP
X ................
X ................
X ................
X ................
X ................
X ................
X ................
X .....**.........
X .....**.........
X .....**.........
X .....**.........
X .**********.....
X .....**.........
X .....**.........
X .....**.........
X .....**.........
X ................
X ................
X .**********.....
X ................
X ................
X ................
X ................
X ................
ENDCHAR
STARTCHAR twosuperior
ENCODING 178
SWIDTH 500 0
DWIDTH 12 0
BBX 12 24 0 -5
BITMAP
X ................
X ................
X ....****........
X ...**..**.......
X ...**..**.......
X ......**........
X .....**.........
X ....**..........
X ...******.......
X ................
X ................
X ................
X ................
X ................
X ................
X ................
X ................
X ................
X ................
X ................
X ................
X ................
X ................
X ................
ENDCHAR
STARTCHAR threesuperior
ENCODING 179
SWIDTH 500 0
DWIDTH 12 0
BBX 12 24 0 -5
BITMAP
X ................
X ................
X ....****........
X ...**..**.......
X .......**.......
X .....***........
X .......**.......
X ...**..**.......
X ....****........
X ................
X ................
X ................
X ................
X ................
X ................
X ................
X ................
X ................
X ................
X ................
X ................
X ................
X ................
X ................
ENDCHAR
STARTCHAR acute
ENCODING 180
SWIDTH 500 0
DWIDTH 12 0
BBX 12 24 0 -5
BITMAP
X .......**.......
X ......**........
X .....**.........
X ................
X ................
X ................
X ................
X ................
X ................
X ................
X ................
X ................
X ................
X ................
X ................
X ................
X ................
X ................
X ................
X ................
X ................
X ................
X ................
X ................
ENDCHAR
STARTCHAR mu
ENCODING 181
SWIDTH 500 0
DWIDTH 12 0
BBX 12 24 0 -5
BITMAP
X ................
X ................
X ................
X ................
X ................
X ................
X ................
X ................
X .**......**.....
X .**......**.....
X .**......**.....
X .**......**.....
X .**......**.....
X .**......**.....
X .**......**.....
X .**......**.....
X .**.....***.....
X .**....****.....
X .*******.**.....
X .**.............
X .**.............
X .**.............
X .**.............
X ................
ENDCHAR
STARTCHAR paragraph
ENCODING 182
SWIDTH 500 0
DWIDTH 12 0
BBX 12 24 0 -5
BITMAP
X ................
X ................
X ................
X ................
X ..*********.....
X .**..**..**.....
X .**..**..**.....
X .**..**..**.....
X .**..**..**.....
X .**..**..**.....
X .**..**..**.....
X ..*****..**.....
X .....**..**.....
X .....**..**.....
X .....**..**.....
X .....**..**.....
X .....**..**.....
X .....**..**.....
X .....**..**.....
X ................
X ................
X ................
X ................
X ................
ENDCHAR
STARTCHAR periodcentered
ENCODING 183
SWIDTH 500 0
DWIDTH 12 0
BBX 12 24 0 -5
BITMAP
X ................
X ................
X ................
X ................
X ................
X ................
X ................
X ................
X ................
X ................
X .....**.........
X .....**.........
X .....**.........
X ................
X ................
X ................
X ................
X ................
X ................
X ................
X ................
X ................
X ................
X ................
ENDCHAR
STARTCHAR cedilla
ENCODING 184
SWIDTH 500 0
DWIDTH 12 0
BBX 12 24 0 -5
BITMAP
X ................
X ................
X ................
X ................
X ................
X ................
X ................
X ................
X ................
X ................
X ................
X ................
X ................
X ................
X ................
X ................
X ................
X ................
X ................
X .....**.........
X .....**.........
X .....**.........
X ....**..........
X ................
ENDCHAR
STARTCHAR onesuperior
ENCODING 185
SWIDTH 500 0
DWIDTH 12 0
BBX 12 24 0 -5
BITMAP
X ................
X ................
X .....**.........
X ....***.........
X ...****.........
X .....**.........
X .....**.........
X .....**.........
X ....****........
X ................
X ................
X ................
X ................
X ................
X ................
X ................
X ................
X ................
X ................
X ................
X ................
X ................
X ................
X ................
ENDCHAR
STARTCHAR ordmasculine
ENCODING 186
SWIDTH 500 0
DWIDTH 12 0
BBX 12 24 0 -5
BITMAP
X ................
X ...*****........
X ..**...**.......
X .**.....**......
X .**.....**......
X .**.....**......
X .**.....**......
X .**.....**......
X ..**...**.......
X ...*****........
X ................
X .*********......
X ................
X ................
X ................
X ................
X ................
X ................
X ................
X ................
X ................
X ................
X ................
X ................
ENDCHAR
STARTCHAR guillemotright
ENCODING 187
SWIDTH 500 0
DWIDTH 12 0
BBX 12 24 0 -5
BITMAP
X ................
X ................
X ................
X ................
X ................
X ................
X ................
X ................
X **..**..........
X .**..**.........
X ..**..**........
X ...**..**.......
X ....**..**......
X .....**..**.....
X ....**..**......
X ...**..**.......
X ..**..**........
X .**..**.........
X **..**..........
X ................
X ................
X ................
X ................
X ................
ENDCHAR
STARTCHAR onequarter
ENCODING 188
SWIDTH 500 0
DWIDTH 12 0
BBX 12 24 0 -5
BITMAP
X ................
X ................
X ................
X ....**..........
X ...***..........
X ..****..........
X ....**..........
X ....**....*.....
X ....**...**.....
X ....**..**......
X .......**.......
X ......**........
X .....**..**.....
X ....**..***.....
X ...**..****.....
X ..**..**.**.....
X .**..**..**.....
X .*...******.....
X .........**.....
X .........**.....
X ................
X ................
X ................
X ................
ENDCHAR
STARTCHAR onehalf
ENCODING 189
SWIDTH 500 0
DWIDTH 12 0
BBX 12 24 0 -5
BITMAP
X ................
X ................
X ................
X ....**..........
X ...***..........
X ..****..........
X ....**....*.....
X ....**...**.....
X ....**..**......
X ....**.**.......
X ......**........
X .....**.........
X ....**..........
X ...**.****......
X ..**.**..**.....
X .**..**..**.....
X .*......**......
X .......**.......
X ......**........
X .....******.....
X ................
X ................
X ................
X ................
ENDCHAR
STARTCHAR threequarters
ENCODING 190
SWIDTH 500 0
DWIDTH 12 0
BBX 12 24 0 -5
BITMAP
X ................
X ................
X ................
X ..****..........
X .**..**.........
X .....**.........
X ...***..........
X .....**...*.....
X .**..**..**.....
X ..****..**......
X .......**.......
X ......**........
X .....**..**.....
X ....**..***.....
X ...**..****.....
X ..**..**.**.....
X .**..**..**.....
X .*...******.....
X .........**.....
X .........**.....
X ................
X ................
X ................
X ................
ENDCHAR
STARTCHAR questiondown
ENCODING 191
SWIDTH 500 0
DWIDTH 12 0
BBX 12 24 0 -5
BITMAP
X ................
X ................
X ................
X ................
X .....**.........
X .....**.........
X .....**.........
X ................
X ................
X .....**.........
X .....**.........
X ....**..........
X ...**...........
X ..**............
X .**......**.....
X .**......**.....
X .**......**.....
X ..**....**......
X ...******.......
X ................
X ................
X ................
X ................
X ................
ENDCHAR
STARTCHAR Agrave
ENCODING 192
SWIDTH 500 0
DWIDTH 12 0
BBX 12 24 0 -5
BITMAP
X ...**...........
X ....**..........
X .....**.........
X ................
X ...******.......
X ..**....**......
X .**......**.....
X .**......**.....
X .**......**.....
X .**......**.....
X .**......**.....
X .**......**.....
X .**********.....
X .**......**.....
X .**......**.....
X .**......**.....
X .**......**.....
X .**......**.....
X .**......**.....
X ................
X ................
X ................
X ................
X ................
ENDCHAR
STARTCHAR Aacute
ENCODING 193
SWIDTH 500 0
DWIDTH 12 0
BBX 12 24 0 -5
BITMAP
X .......**.......
X ......**........
X .....**.........
X ................
X ...******.......
X ..**....**......
X .**......**.....
X .**......**.....
X .**......**.....
X .**......**.....
X .**......**.....
X .**......**.....
X .**********.....
X .**......**.....
X .**......**.....
X .**......**.....
X .**......**.....
X .**......**.....
X .**......**.....
X ................
X ................
X ................
X ................
X ................
ENDCHAR
STARTCHAR Acircumflex
ENCODING 194
SWIDTH 500 0
DWIDTH 12 0
BBX 12 24 0 -5
BITMAP
X .....**.........
X ....****........
X ...**..**.......
X ................
X ...******.......
X ..**....**......
X .**......**.....
X .**......**.....
X .**......**.....
X .**......**.....
X .**......**.....
X .**......**.....
X .**********.....
X .**......**.....
X .**......**.....
X .**......**.....
X .**......**.....
X .**......**.....
X .**......**.....
X ................
X ................
X ................
X ................
X ................
ENDCHAR
STARTCHAR Atilde
ENCODING 195
SWIDTH 500 0
DWIDTH 12 0
BBX 12 24 0 -5
BITMAP
X ...***..**......
X ..**.**.**......
X ..**..***.......
X ................
X ...******.......
X ..**....**......
X .**......**.....
X .**......**.....
X .**......**.....
X .**......**.....
X .**......**.....
X .**......**.....
X .**********.....
X .**......**.....
X .**......**.....
X .**......**.....
X .**......**.....
X .**......**.....
X .**......**.....
X ................
X ................
X ................
X ................
X ................
ENDCHAR
STARTCHAR Adieresis
ENCODING 196
SWIDTH 500 0
DWIDTH 12 0
BBX 12 24 0 -5
BITMAP
X ...**..**.......
X ...**..**.......
X ...**..**.......
X ................
X ...******.......
X ..**....**......
X .**......**.....
X .**......**.....
X .**......**.....
X .**......**.....
X .**......**.....
X .**......**.....
X .**********.....
X .**......**.....
X .**......**.....
X .**......**.....
X .**......**.....
X .**......**.....
X .**......**.....
X ................
X ................
X ................
X ................
X ................
ENDCHAR
STARTCHAR Aring
ENCODING 197
SWIDTH 500 0
DWIDTH 12 0
BBX 12 24 0 -5
BITMAP
X ....****........
X ...**..**.......
X ...**..**.......
X ....****........
X ...******.......
X ..**....**......
X .**......**.....
X .**......**.....
X .**......**.....
X .**......**.....
X .**......**.....
X .**......**.....
X .**********.....
X .**......**.....
X .**......**.....
X .**......**.....
X .**......**.....
X .**......**.....
X .**......**.....
X ................
X ................
X ................
X ................
X ................
ENDCHAR
STARTCHAR AE
ENCODING 198
SWIDTH 500 0
DWIDTH 12 0
BBX 12 24 0 -5
BITMAP
X ................
X ................
X ................
X ................
X ..**********....
X .**...**........
X **....**........
X **....**........
X **....**........
X **....**........
X **....**........
X ************....
X **....**........
X **....**........
X **....**........
X **....**........
X **....**........
X **....**........
X **....******....
X ................
X ................
X ................
X ................
X ................
ENDCHAR
STARTCHAR Ccedilla
ENCODING 199
SWIDTH 500 0
DWIDTH 12 0
BBX 12 24 0 -5
BITMAP
X ................
X ................
X ................
X ................
X ...******.......
X ..**....**......
X .**......**.....
X .**......**.....
X .**.............
X .**.............
X .**.............
X .**.............
X .**.............
X .**.............
X .**.............
X .**......**.....
X .**......**.....
X ..**....**......
X ...******.......
X .....**.........
X .....**.........
X .....**.........
X ....**..........
X ................
ENDCHAR
STARTCHAR Egrave
ENCODING 200
SWIDTH 500 0
DWIDTH 12 0
BBX 12 24 0 -5
BITMAP
X ...**...........
X ....**..........
X .....**.........
X ................
X .**********.....
X .**.............
X .**.............
X .**.............
X .**.............
X .**.............
X .**.............
X .********.......
X .**.............
X .**.............
X .**.............
X .**.............
X .**.............
X .**.............
X .**********.....
X ................
X ................
X ................
X ................
X ................
ENDCHAR
STARTCHAR Eacute
ENCODING 201
SWIDTH 500 0
DWIDTH 12 0
BBX 12 24 0 -5
BITMAP
X .......**.......
X ......**........
X .....**.........
X ................
X .**********.....
X .**.............
X .**.............
X .**.............
X .**.............
X .**.............
X .**.............
X .********.......
X .**.............
X .**.............
X .**.............
X .**.............
X .**.............
X .**.............
X .**********.....
X ................
X ................
X ................
X ................
X ................
ENDCHAR
STARTCHAR Ecircumflex
ENCODING 202
SWIDTH 500 0
DWIDTH 12 0
BBX 12 24 0 -5
BITMAP
X .....**.........
X ....****........
X ...**..**.......
X ................
X .**********.....
X .**.............
X .**.............
X .**.............
X .**.............
X .**.............
X .**.............
X .********.......
X .**.............
X .**.............
X .**.............
X .**.............
X .**.............
X .**.............
X .**********.....
X ................
X ................
X ................
X ................
X ................
ENDCHAR
STARTCHAR Edieresis
ENCODING 203
SWIDTH 500 0
DWIDTH 12 0
BBX 12 24 0 -5
BITMAP
X ...**..**.......
X ...**..**.......
X ...**..**.......
X ................
X .**********.....
X .**.............
X .**.............
X .**.............
X .**.............
X .**.............
X .**.............
X .********.......
X .**.............
X .**.............
X .**.............
X .**.............
X .**.............
X .**.............
X .**********.....
X ................
X ................
X ................
X ................
X ................
ENDCHAR
STARTCHAR Igrave
ENCODING 204
SWIDTH 500 0
DWIDTH 12 0
BBX 12 24 0 -5
BITMAP
X ...**...........
X ....**..........
X .....**.........
X ................
X ...******.......
X .....**.........
X .....**.........
X .....**.........
X .....**.........
X .....**.........
X .....**.........
X .....**.........
X .....**.........
X .....**.........
X .....**.........
X .....**.........
X .....**.........
X .....**.........
X ...******.......
X ................
X ................
X ................
X ................
X ................
ENDCHAR
STARTCHAR Iacute
ENCODING 205
SWIDTH 500 0
DWIDTH 12 0
BBX 12 24 0 -5
BITMAP
X .......**.......
X ......**........
X .....**.........
X ................
X ...******.......
X .....**.........
X .....**.........
X .....**.........
X .....**.........
X .....**.........
X .....**.........
X .....**.........
X .....**.........
X .....**.........
X .....**.........
X .....**.........
X .....**.........
X .....**.........
X ...******.......
X ................
X ................
X ................
X ................
X ................
ENDCHAR
STARTCHAR Icircumflex
ENCODING 206
SWIDTH 500 0
DWIDTH 12 0
BBX 12 24 0 -5
BITMAP
X .....**.........
X ....****........
X ...**..**.......
X ................
X ...******.......
X .....**.........
X .....**.........
X .....**.........
X .....**.........
X .....**.........
X .....**.........
X .....**.........
X .....**.........
X .....**.........
X .....**.........
X .....**.........
X .....**.........
X .....**.........
X ...******.......
X ................
X ................
X ................
X ................
X ................
ENDCHAR
STARTCHAR Idieresis
ENCODING 207
SWIDTH 500 0
DWIDTH 12 0
BBX 12 24 0 -5
BITMAP
X ...**..**.......
X ...**..**.......
X ...**..**.......
X ................
X ...******.......
X .....**.........
X .....**.........
X .....**.........
X .....**.........
X .....**.........
X .....**.........
X .....**.........
X .....**.........
X .....**.........
X .....**.........
X .....**.........
X .....**.........
X .....**.........
X ...******.......
X ................
X ................
X ................
X ................
X ................
ENDCHAR
STARTCHAR Eth
ENCODING 208
SWIDTH 500 0
DWIDTH 12 0
BBX 12 24 0 -5
BITMAP
X ................
X ................
X ................
X ................
X .********.......
X .**.....**......
X .**......**.....
X .**......**.....
X .**......**.....
X .**......**.....
X .**......**.....
X *******..**.....
X .**......**.....
X .**......**.....
X .**......**.....
X .**......**.....
X .**......**.....
X .**.....**......
X .********.......
X ................
X ................
X ................
X ................
X ................
ENDCHAR
STARTCHAR Ntilde
ENCODING 209
SWIDTH 500 0
DWIDTH 12 0
BBX 12 24 0 -5
BITMAP
X ...***..**......
X ..**.**.**......
X ..**..***.......
X ................
X .**......**.....
X .**......**.....
X .**......**.....
X .**......**.....
X .***.....**.....
X .****....**.....
X .**.**...**.....
X .**..**..**.....
X .**...**.**.....
X .**....****.....
X .**.....***.....
X .**......**.....
X .**......**.....
X .**......**.....
X .**......**.....
X ................
X ................
X ................
X ................
X ................
ENDCHAR
STARTCHAR Ograve
ENCODING 210
SWIDTH 500 0
DWIDTH 12 0
BBX 12 24 0 -5
BITMAP
X ...**...........
X ....**..........
X .....**.........
X ................
X ...******.......
X ..**....**......
X .**......**.....
X .**......**.....
X .**......**.....
X .**......**.....
X .**......**.....
X .**......**.....
X .**......**.....
X .**......**.....
X .**......**.....
X .**......**.....
X .**......**.....
X ..**....**......
X ...******.......
X ................
X ................
X ................
X ................
X ................
ENDCHAR
STARTCHAR Oacute
ENCODING 211
SWIDTH 500 0
DWIDTH 12 0
BBX 12 24 0 -5
BITMAP
X .......**.......
X ......**........
X .....**.........
X ................
X ...******.......
X ..**....**......
X .**......**.....
X .**......**.....
X .**......**.....
X .**......**.....
X .**......**.....
X .**......**.....
X .**......**.....
X .**......**.....
X .**......**.....
X .**......**.....
X .**......**.....
X ..**....**......
X ...******.......
X ................
X ................
X ................
X ................
X ................
ENDCHAR
STARTCHAR Ocircumflex
ENCODING 212
SWIDTH 500 0
DWIDTH 12 0
BBX 12 24 0 -5
BITMAP
X .....**.........
X ....****........
X ...**..**.......
X ................
X ...******.......
X ..**....**......
X .**......**.....
X .**......**.....
X .**......**.....
X .**......**.....
X .**......**.....
X .**......**.....
X .**......**.....
X .**......**.....
X .**......**.....
X .**......**.....
X .**......**.....
X ..**....**......
X ...******.......
X ................
X ................
X ................
X ................
X ................
ENDCHAR
STARTCHAR Otilde
ENCODING 213
SWIDTH 500 0
DWIDTH 12 0
BBX 12 24 0 -5
BITMAP
X ...***..**......
X ..**.**.**......
X ..**..***.......
X ................
X ...******.......
X ..**....**......
X .**......**.....
X .**......**.....
X .**......**.....
X .**......**.....
X .**......**.....
X .**......**.....
X .**......**.....
X .**......**.....
X .**......**.....
X .**......**.....
X .**......**.....
X ..**....**......
X ...******.......
X ................
X ................
X ................
X ................
X ................
ENDCHAR
STARTCHAR Odieresis
ENCODING 214
SWIDTH 500 0
DWIDTH 12 0
BBX 12 24 0 -5
BITMAP
X ...**..**.......
X ...**..**.......
X ...**..**.......
X ................
X ...******.......
X ..**....**......
X .**......**.....
X .**......**.....
X .**......**.....
X .**......**.....
X .**......**.....
X .**......**.....
X .**......**.....
X .**......**.....
X .**......**.....
X .**......**.....
X .**......**.....
X ..**....**......
X ...******.......
X ................
X ................
X ................
X ................
X ................
ENDCHAR
STARTCHAR multiply
ENCODING 215
SWIDTH 500 0
DWIDTH 12 0
BBX 12 24 0 -5
BITMAP
X ................
X ................
X ................
X ................
X ................
X ................
X ................
X .**......**.....
X ..**....**......
X ...**..**.......
X ....****........
X .....**.........
X ....****........
X ...**..**.......
X ..**....**......
X .**......**.....
X ................
X ................
X ................
X ................
X ................
X ................
X ................
X ................
ENDCHAR
STARTCHAR Oslash
ENCODING 216
SWIDTH 500 0
DWIDTH 12 0
BBX 12 24 0 -5
BITMAP
X ................
X ................
X ................
X ................
X ...******.......
X ..**....**......
X .**......***....
X .**......**.....
X .**.....***.....
X .**....****.....
X .**...**.**.....
X .**..**..**.....
X .**.**...**.....
X .****....**.....
X .***.....**.....
X .**......**.....
X ***......**.....
X ..**....**......
X ...******.......
X ................
X ................
X ................
X ................
X ................
ENDCHAR
STARTCHAR Ugrave
ENCODING 217
SWIDTH 500 0
DWIDTH 12 0
BBX 12 24 0 -5
BITMAP
X ...**...........
X ....**..........
X .....**.........
X ................
X .**......**.....
X .**......**.....
X .**......**.....
X .**......**.....
X .**......**.....
X .**......**.....
X .**......**.....
X .**......**.....
X .**......**.....
X .**......**.....
X .**......**.....
X .**......**.....
X .**......**.....
X ..**....**......
X ...******.......
X ................
X ................
X ................
X ................
X ................
ENDCHAR
STARTCHAR Uacute
ENCODING 218
SWIDTH 500 0
DWIDTH 12 0
BBX 12 24 0 -5
BITMAP
X .......**.......
X ......**........
X .....**.........
X ................
X .**......**.....
X .**......**.....
X .**......**.....
X .**......**.....
X .**......**.....
X .**......**.....
X .**......**.....
X .**......**.....
X .**......**.....
X .**......**.....
X .**......**.....
X .**......**.....
X .**......**.....
X ..**....**......
X ...******.......
X ................
X ................
X ................
X ................
X ................
ENDCHAR
STARTCHAR Ucircumflex
ENCODING 219
SWIDTH 500 0
DWIDTH 12 0
BBX 12 24 0 -5
BITMAP
X .....**.........
X ....****........
X ...**..**.......
X ................
X .**......**.....
X .**......**.....
X .**......**.....
X .**......**.....
X .**......**.....
X .**......**.....
X .**......**.....
X .**......**.....
X .**......**.....
X .**......**.....
X .**......**.....
X .**......**.....
X .**......**.....
X ..**....**......
X ...******.......
X ................
X ................
X ................
X ................
X ................
ENDCHAR
STARTCHAR Udieresis
ENCODING 220
SWIDTH 500 0
DWIDTH 12 0
BBX 12 24 0 -5
BITMAP
X ...**..**.......
X ...**..**.......
X ...**..**.......
X ................
X .**......**.....
X .**......**.....
X .**......**.....
X .**......**.....
X .**......**.....
X .**......**.....
X .**......**.....
X .**......**.....
X .**......**.....
X .**......**.....
X .**......**.....
X .**......**.....
X .**......**.....
X ..**....**......
X ...******.......
X ................
X ................
X ................
X ................
X ................
ENDCHAR
STARTCHAR Yacute
ENCODING 221
SWIDTH 500 0
DWIDTH 12 0
BBX 12 24 0 -5
BITMAP
X .......**.......
X ......**........
X .....**.........
X ................
X .**......**.....
X .**......**.....
X ..**....**......
X ..**....**......
X ...**..**.......
X ...**..**.......
X ....****........
X ....****........
X .....**.........
X .....**.........
X .....**.........
X .....**.........
X .....**.........
X .....**.........
X .....**.........
X ................
X ................
X ................
X ................
X ................
ENDCHAR
STARTCHAR Thorn
ENCODING 222
SWIDTH 500 0
DWIDTH 12 0
BBX 12 24 0 -5
BITMAP
X ................
X ................
X ................
X ................
X .**.............
X .**.............
X .**.............
X .********.......
X .**.....**......
X .**......**.....
X .**......**.....
X .**......**.....
X .**......**.....
X .**.....**......
X .********.......
X .**.............
X .**.............
X .**.............
X .**.............
X ................
X ................
X ................
X ................
X ................
ENDCHAR
STARTCHAR germandbls
ENCODING 223
SWIDTH 500 0
DWIDTH 12 0
BBX 12 24 0 -5
BITMAP
X ................
X ................
X ................
X ................
X ..******........
X .**....**.......
X .**.....**......
X .**.....**......
X .**.....**......
X .**....**.......
X .********.......
X .**.....**......
X .**......**.....
X .**......**.....
X .**......**.....
X .**......**.....
X .***.....**.....
X .**.*...**......
X .**.*****.......
X ................
X ................
X ................
X ................
X ................
ENDCHAR
STARTCHAR agrave
ENCODING 224
SWIDTH 500 0
DWIDTH 12 0
BBX 12 24 0 -5
BITMAP
X ................
X ................
X ................
X ................
X ...**...........
X ....**..........
X .....**.........
X ................
X ..*******.......
X ........**......
X .........**.....
X .........**.....
X ...********.....
X ..**.....**.....
X .**......**.....
X .**......**.....
X .**......**.....
X ..**.....**.....
X ...********.....
X ................
X ................
X ................
X ................
X ................
ENDCHAR
STARTCHAR aacute
ENCODING 225
SWIDTH 500 0
DWIDTH 12 0
BBX 12 24 0 -5
BITMAP
X ................
X ................
X ................
X ................
X .......**.......
X ......**........
X .....**.........
X ................
X ..*******.......
X ........**......
X .........**.....
X .........**.....
X ...********.....
X ..**.....**.....
X .**......**.....
X .**......**.....
X .**......**.....
X ..**.....**.....
X ...********.....
X ................
X ................
X ................
X ................
X ................
ENDCHAR
STARTCHAR acircumflex
ENCODING 226
SWIDTH 500 0
DWIDTH 12 0
BBX 12 24 0 -5
BITMAP
X ................
X ................
X ................
X ................
X .....**.........
X ....****........
X ...**..**.......
X ................
X ..*******.......
X ........**......
X .........**.....
X .........**.....
X ...********.....
X ..**.....**.....
X .**......**.....
X .**......**.....
X .**......**.....
X ..**.....**.....
X ...********.....
X ................
X ................
X ................
X ................
X ................
ENDCHAR
STARTCHAR atilde
ENCODING 227
SWIDTH 500 0
DWIDTH 12 0
BBX 12 24 0 -5
BITMAP
X ................
X ................
X ................
X ................
X ...***..**......
X ..**.**.**......
X ..**..***.......
X ................
X ..*******.......
X ........**......
X .........**.....
X .........**.....
X ...********.....
X ..**.....**.....
X .**......**.....
X .**......**.....
X .**......**.....
X ..**.....**.....
X ...********.....
X ................
X ................
X ................
X ................
X ................
ENDCHAR
STARTCHAR adieresis
ENCODING 228
SWIDTH 500 0
DWIDTH 12 0
BBX 12 24 0 -5
BITMAP
X ................
X ................
X ................
X ................
X ...**..**.......
X ...**..**.......
X ...**..**.......
X ................
X ..*******.......
X ........**......
X .........**.....
X .........**.....
X ...********.....
X ..**.....**.....
X .**......**.....
X .**......**.....
X .**......**.....
X ..**.....**.....
X ...********.....
X ................
X ................
X ................
X ................
X ................
ENDCHAR
STARTCHAR aring
ENCODING 229
SWIDTH 500 0
DWIDTH 12 0
BBX 12 24 0 -5
BITMAP
X ................
X ................
X ................
X ................
X ....****........
X ...**..**.......
X ...**..**.......
X ....****........
X ..*******.......
X ........**......
X .........**.....
X .........**.....
X ...********.....
X ..**.....**.....
X .**......**.....
X .**......**.....
X .**......**.....
X ..**.....**.....
X ...********.....
X ................
X ................
X ................
X ................
X ................
ENDCHAR
STARTCHAR ae
ENCODING 230
SWIDTH 500 0
DWIDTH 12 0
BBX 12 24 0 -5
BITMAP
X ................
X ................
X ................
X ................
X ................
X ................
X ................
X ................
X .****.*****.....
X ....***...**....
X .....**...**....
X .....**...**....
X .******...**....
X **...*******....
X **...**.........
X **...**.........
X **...**.........
X **...***..**....
X .*****.****.....
X ................
X ................
X ................
X ................
X ................
ENDCHAR
STARTCHAR ccedilla
ENCODING 231
SWIDTH 500 0
DWIDTH 12 0
BBX 12 24 0 -5
BITMAP
X ................
X ................
X ................
X ................
X ................
X ................
X ................
X ................
X ...******.......
X ..**....**......
X .**......**.....
X .**.............
X .**.............
X .**.............
X .**.............
X .**.............
X .**......**.....
X ..**....**......
X ...******.......
X .....**.........
X .....**.........
X .....**.........
X ....**..........
X ................
ENDCHAR
STARTCHAR egrave
ENCODING 232
SWIDTH 500 0
DWIDTH 12 0
BBX 12 24 0 -5
BITMAP
X ................
X ................
X ................
X ................
X ...**...........
X ....**..........
X .....**.........
X ................
X ...******.......
X ..**....**......
X .**......**.....
X .**......**.....
X .**......**.....
X .**********.....
X .**.............
X .**.............
X .**.............
X ..**.....**.....
X ...*******......
X ................
X ................
X ................
X ................
X ................
ENDCHAR
STARTCHAR eacute
ENCODING 233
SWIDTH 500 0
DWIDTH 12 0
BBX 12 24 0 -5
BITMAP
X ................
X ................
X ................
X ................
X .......**.......
X ......**........
X .....**.........
X ................
X ...******.......
X ..**....**......
X .**......**.....
X .**......**.....
X .**......**.....
X .**********.....
X .**.............
X .**.............
X .**.............
X ..**.....**.....
X ...*******......
X ................
X ................
X ................
X ................
X ................
ENDCHAR
STARTCHAR ecircumflex
ENCODING 234
SWIDTH 500 0
DWIDTH 12 0
BBX 12 24 0 -5
BITMAP
X ................
X ................
X ................
X ................
X .....**.........
X ....****........
X ...**..**.......
X ................
X ...******.......
X ..**....**......
X .**......**.....
X .**......**.....
X .**......**.....
X .**********.....
X .**.............
X .**.............
X .**.............
X ..**.....**.....
X ...*******......
X ................
X ................
X ................
X ................
X ................
ENDCHAR
STARTCHAR edieresis
ENCODING 235
SWIDTH 500 0
DWIDTH 12 0
BBX 12 24 0 -5
BITMAP
X ................
X ................
X ................
X ................
X ...**..**.......
X ...**..**.......
X ...**..**.......
X ................
X ...******.......
X ..**....**......
X .**......**.....
X .**......**.....
X .**......**.....
X .**********.....
X .**.............
X .**.............
X .**.............
X ..**.....**.....
X ...*******......
X ................
X ................
X ................
X ................
X ................
ENDCHAR
STARTCHAR igrave
ENCODING 236
SWIDTH 500 0
DWIDTH 12 0
BBX 12 24 0 -5
BITMAP
X ................
X ................
X ................
X ................
X ...**...........
X ....**..........
X .....**.........
X ................
X ...****.........
X .....**.........
X .....**.........
X .....**.........
X .....**.........
X .....**.........
X .....**.........
X .....**.........
X .....**.........
X .....**.........
X ...******.......
X ................
X ................
X ................
X ................
X ................
ENDCHAR
STARTCHAR iacute
ENCODING 237
SWIDTH 500 0
DWIDTH 12 0
BBX 12 24 0 -5
BITMAP
X ................
X ................
X ................
X ................
X .......**.......
X ......**........
X .....**.........
X ................
X ...****.........
X .....**.........
X .....**.........
X .....**.........
X .....**.........
X .....**.........
X .....**.........
X .....**.........
X .....**.........
X .....**.........
X ...******.......
X ................
X ................
X ................
X ................
X ................
ENDCHAR
STARTCHAR icircumflex
ENCODING 238
SWIDTH 500 0
DWIDTH 12 0
BBX 12 24 0 -5
BITMAP
X ................
X ................
X ................
X ................
X .....**.........
X ....****........
X ...**..**.......
X ................
X ...****.........
X .....**.........
X .....**.........
X .....**.........
X .....**.........
X .....**.........
X .....**.........
X .....**.........
X .....**.........
X .....**.........
X ...******.......
X ................
X ................
X ................
X ................
X ................
ENDCHAR
STARTCHAR idieresis
ENCODING 239
SWIDTH 500 0
DWIDTH 12 0
BBX 12 24 0 -5
BITMAP
X ................
X ................
X ................
X ................
X ...**..**.......
X ...**..**.......
X ...**..**.......
X ................
X ...****.........
X .....**.........
X .....**.........
X .....**.........
X .....**.........
X .....**.........
X .....**.........
X .....**.........
X .....**.........
X .....**.........
X ...******.......
X ................
X ................
X ................
X ................
X ................
ENDCHAR
STARTCHAR eth
ENCODING 240
SWIDTH 500 0
DWIDTH 12 0
BBX 12 24 0 -5
BITMAP
X ................
X ................
X ................
X ................
X ..**.**.........
X ...***..........
X ..**.**.........
X ......**........
X ...******.......
X ..**....**......
X .**......**.....
X .**......**.....
X .**......**.....
X .**......**.....
X .**......**.....
X .**......**.....
X .**......**.....
X ..**....**......
X ...******.......
X ................
X ................
X ................
X ................
X ................
ENDCHAR
STARTCHAR ntilde
ENCODING 241
SWIDTH 500 0
DWIDTH 12 0
BBX 12 24 0 -5
BITMAP
X ................
X ................
X ................
X ................
X ...***..**......
X ..**.**.**......
X ..**..***.......
X ................
X .********.......
X .**.....**......
X .**......**.....
X .**......**.....
X .**......**.....
X .**......**.....
X .**......**.....
X .**......**.....
X .**......**.....
X .**......**.....
X .**......**.....
X ................
X ................
X ................
X ................
X ................
ENDCHAR
STARTCHAR ograve
ENCODING 242
SWIDTH 500 0
DWIDTH 12 0
BBX 12 24 0 -5
BITMAP
X ................
X ................
X ................
X ................
X ...**...........
X ....**..........
X .....**.........
X ................
X ...******.......
X ..**....**......
X .**......**.....
X .**......**.....
X .**......**.....
X .**......**.....
X .**......**.....
X .**......**.....
X .**......**.....
X ..**....**......
X ...******.......
X ................
X ................
X ................
X ................
X ................
ENDCHAR
STARTCHAR oacute
ENCODING 243
SWIDTH 500 0
DWIDTH 12 0
BBX 12 24 0 -5
BITMAP
X ................
X ................
X ................
X ................
X .......**.......
X ......**........
X .....**.........
X ................
X ...******.......
X ..**....**......
X .**......**.....
X .**......**.....
X .**......**.....
X .**......**.....
X .**......**.....
X .**......**.....
X .**......**.....
X ..**....**......
X ...******.......
X ................
X ................
X ................
X ................
X ................
ENDCHAR
STARTCHAR ocircumflex
ENCODING 244
SWIDTH 500 0
DWIDTH 12 0
BBX 12 24 0 -5
BITMAP
X ................
X ................
X ................
X ................
X .....**.........
X ....****........
X ...**..**.......
X ................
X ...******.......
X ..**....**......
X .**......**.....
X .**......**.....
X .**......**.....
X .**......**.....
X .**......**.....
X .**......**.....
X .**......**.....
X ..**....**......
X ...******.......
X ................
X ................
X ................
X ................
X ................
ENDCHAR
STARTCHAR otilde
ENCODING 245
SWIDTH 500 0
DWIDTH 12 0
BBX 12 24 0 -5
BITMAP
X ................
X ................
X ................
X ................
X ...***..**......
X ..**.**.**......
X ..**..***.......
X ................
X ...******.......
X ..**....**......
X .**......**.....
X .**......**.....
X .**......**.....
X .**......**.....
X .**......**.....
X .**......**.....
X .**......**.....
X ..**....**......
X ...******.......
X ................
X ................
X ................
X ................
X ................
ENDCHAR
STARTCHAR odieresis
ENCODING 246
SWIDTH 500 0
DWIDTH 12 0
BBX 12 24 0 -5
BITMAP
X ................
X ................
X ................
X ................
X ...**..**.......
X ...**..**.......
X ...**..**.......
X ................
X ...******.......
X ..**....**......
X .**......**.....
X .**......**.....
X .**......**.....
X .**......**.....
X .**......**.....
X .**......**.....
X .**......**.....
X ..**....**......
X ...******.......
X ................
X ................
X ................
X ................
X ................
ENDCHAR
STARTCHAR divide
ENCODING 247
SWIDTH 500 0
DWIDTH 12 0
BBX 12 24 0 -5
BITMAP
X ................
X ................
X ................
X ................
X ................
X ................
X .....**.........
X .....**.........
X .....**.........
X ................
X ................
X .**********.....
X ................
X ................
X .....**.........
X .....**.........
X .....**.........
X ................
X ................
X ................
X ................
X ................
X ................
X ................
ENDCHAR
STARTCHAR oslash
ENCODING 248
SWIDTH 500 0
DWIDTH 12 0
BBX 12 24 0 -5
BITMAP
X ................
X ................
X ................
X ................
X ................
X ................
X ................
X ................
X ...******.*.....
X ..**....**......
X .**.....***.....
X .**....****.....
X .**...**.**.....
X .**..**..**.....
X .**.**...**.....
X .****....**.....
X .***.....**.....
X ..**....**......
X .*.******.......
X ................
X ................
X ................
X ................
X ................
ENDCHAR
STARTCHAR ugrave
ENCODING 249
SWIDTH 500 0
DWIDTH 12 0
BBX 12 24 0 -5
BITMAP
X ................
X ................
X ................
X ................
X ...**...........
X ....**..........
X .....**.........
X ................
X .**......**.....
X .**......**.....
X .**......**.....
X .**......**.....
X .**......**.....
X .**......**.....
X .**......**.....
X .**......**.....
X .**......**.....
X ..**.....**.....
X ...********.....
X ................
X ................
X ................
X ................
X ................
ENDCHAR
STARTCHAR uacute
ENCODING 250
SWIDTH 500 0
DWIDTH 12 0
BBX 12 24 0 -5
BITMAP
X ................
X ................
X ................
X ................
X .......**.......
X ......**........
X .....**.........
X ................
X .**......**.....
X .**......**.....
X .**......**.....
X .**......**.....
X .**......**.....
X .**......**.....
X .**......**.....
X .**......**.....
X .**......**.....
X ..**.....**.....
X ...********.....
X ................
X ................
X ................
X ................
X ................
ENDCHAR
STARTCHAR ucircumflex
ENCODING 251
SWIDTH 500 0
DWIDTH 12 0
BBX 12 24 0 -5
BITMAP
X ................
X ................
X ................
X ................
X .....**.........
X ....****........
X ...**..**.......
X ................
X .**......**.....
X .**......**.....
X .**......**.....
X .**......**.....
X .**......**.....
X .**......**.....
X .**......**.....
X .**......**.....
X .**......**.....
X ..**.....**.....
X ...********.....
X ................
X ................
X ................
X ................
X ................
ENDCHAR
STARTCHAR udieresis
ENCODING 252
SWIDTH 500 0
DWIDTH 12 0
BBX 12 24 0 -5
BITMAP
X ................
X ................
X ................
X ................
X ...**..**.......
X ...**..**.......
X ...**..**.......
X ................
X .**......**.....
X .**......**.....
X .**......**.....
X .**......**.....
X .**......**.....
X .**......**.....
X .**......**.....
X .**......**.....
X .**......**.....
X ..**.....**.....
X ...********.....
X ................
X ................
X ................
X ................
X ................
ENDCHAR
STARTCHAR yacute
ENCODING 253
SWIDTH 500 0
DWIDTH 12 0
BBX 12 24 0 -5
BITMAP
X ................
X ................
X ................
X ................
X .......**.......
X ......**........
X .....**.........
X ................
X .**......**.....
X .**......**.....
X .**......**.....
X .**......**.....
X .**......**.....
X .**......**.....
X .**......**.....
X .**......**.....
X .**......**.....
X ..**....***.....
X ...********.....
X .........**.....
X .........**.....
X ........**......
X ..*******.......
X ................
ENDCHAR
STARTCHAR thorn
ENCODING 254
SWIDTH 500 0
DWIDTH 12 0
BBX 12 24 0 -5
BITMAP
X ................
X ................
X ................
X ................
X .**.............
X .**.............
X .**.............
X .**.............
X .********.......
X .**.....**......
X .**......**.....
X .**......**.....
X .**......**.....
X .**......**.....
X .**......**.....
X .**......**.....
X .**......**.....
X .**.....**......
X .********.......
X .**.............
X .**.............
X .**.............
X .**.............
X ................
ENDCHAR
STARTCHAR ydieresis
ENCODING 255
SWIDTH 500 0
DWIDTH 12 0
BBX 12 24 0 -5
BITMAP
X ................
X ................
X ................
X ................
X ...**..**.......
X ...**..**.......
X ...**..**.......
X ................
X .**......**.....
X .**......**.....
X .**......**.....
X .**......**.....
X .**......**.....
X .**......**.....
X .**......**.....
X .**......**.....
X .**......**.....
X ..**....***.....
X ...********.....
X .........**.....
X .........**.....
X ........**......
X ..*******.......
X ................
ENDCHAR
STARTCHAR Amacron
ENCODING 256
SWIDTH 500 0
DWIDTH 12 0
BBX 12 24 0 -5
BITMAP
X ................
X ..********......
X ................
X ................
X ...******.......
X ..**....**......
X .**......**.....
X .**......**.....
X .**......**.....
X .**......**.....
X .**......**.....
X .**......**.....
X .**********.....
X .**......**.....
X .**......**.....
X .**......**.....
X .**......**.....
X .**......**.....
X .**......**.....
X ................
X ................
X ................
X ................
X ................
ENDCHAR
STARTCHAR amacron
ENCODING 257
SWIDTH 500 0
DWIDTH 12 0
BBX 12 24 0 -5
BITMAP
X ................
X ................
X ................
X ................
X ................
X ..********......
X ................
X ................
X ..*******.......
X ........**......
X .........**.....
X .........**.....
X ...********.....
X ..**.....**.....
X .**......**.....
X .**......**.....
X .**......**.....
X ..**.....**.....
X ...********.....
X ................
X ................
X ................
X ................
X ................
ENDCHAR
STARTCHAR Abreve
ENCODING 258
SWIDTH 500 0
DWIDTH 12 0
BBX 12 24 0 -5
BITMAP
X ..**....**......
X ..**....**......
X ...******.......
X ................
X ...******.......
X ..**....**......
X .**......**.....
X .**......**.....
X .**......**.....
X .**......**.....
X .**......**.....
X .**......**.....
X .**********.....
X .**......**.....
X .**......**.....
X .**......**.....
X .**......**.....
X .**......**.....
X .**......**.....
X ................
X ................
X ................
X ................
X ................
ENDCHAR
STARTCHAR abreve
ENCODING 259
SWIDTH 500 0
DWIDTH 12 0
BBX 12 24 0 -5
BITMAP
X ................
X ................
X ................
X ................
X ..**....**......
X ..**....**......
X ...******.......
X ................
X ..*******.......
X ........**......
X .........**.....
X .........**.....
X ...********.....
X ..**.....**.....
X .**......**.....
X .**......**.....
X .**......**.....
X ..**.....**.....
X ...********.....
X ................
X ................
X ................
X ................
X ................
ENDCHAR
STARTCHAR Aogonek
ENCODING 260
SWIDTH 500 0
DWIDTH 12 0
BBX 12 24 0 -5
BITMAP
X ................
X ................
X ................
X ................
X ...******.......
X ..**....**......
X .**......**.....
X .**......**.....
X .**......**.....
X .**......**.....
X .**......**.....
X .**......**.....
X .**********.....
X .**......**.....
X .**......**.....
X .**......**.....
X .**......**.....
X .**......**.....
X .**......**.....
X ........***.....
X .......**.......
X .......**.......
X ........****....
X ................
ENDCHAR
STARTCHAR aogonek
ENCODING 261
SWIDTH 500 0
DWIDTH 12 0
BBX 12 24 0 -5
BITMAP
X ................
X ................
X ................
X ................
X ................
X ................
X ................
X ................
X ..*******.......
X ........**......
X .........**.....
X .........**.....
X ...********.....
X ..**.....**.....
X .**......**.....
X .**......**.....
X .**......**.....
X ..**.....**.....
X ...********.....
X ........***.....
X .......**.......
X .......**.......
X ........****....
X ................
ENDCHAR
STARTCHAR Cacute
ENCODING 262
SWIDTH 500 0
DWIDTH 12 0
BBX 12 24 0 -5
BITMAP
X .......**.......
X ......**........
X .....**.........
X ................
X ...******.......
X ..**....**......
X .**......**.....
X .**......**.....
X .**.............
X .**.............
X .**.............
X .**.............
X .**.............
X .**.............
X .**.............
X .**......**.....
X .**......**.....
X ..**....**......
X ...******.......
X ................
X ................
X ................
X ................
X ................
ENDCHAR
STARTCHAR cacute
ENCODING 263
SWIDTH 500 0
DWIDTH 12 0
BBX 12 24 0 -5
BITMAP
X ................
X ................
X ................
X ................
X .......**.......
X ......**........
X .....**.........
X ................
X ...******.......
X ..**....**......
X .**......**.....
X .**.............
X .**.............
X .**.............
X .**.............
X .**.............
X .**......**.....
X ..**....**......
X ...******.......
X ................
X ................
X ................
X ................
X ................
ENDCHAR
STARTCHAR Ccircumflex
ENCODING 264
SWIDTH 500 0
DWIDTH 12 0
BBX 12 24 0 -5
BITMAP
X .....**.........
X ....****........
X ...**..**.......
X ................
X ...******.......
X ..**....**......
X .**......**.....
X .**......**.....
X .**.............
X .**.............
X .**.............
X .**.............
X .**.............
X .**.............
X .**.............
X .**......**.....
X .**......**.....
X ..**....**......
X ...******.......
X ................
X ................
X ................
X ................
X ................
ENDCHAR
STARTCHAR ccircumflex
ENCODING 265
SWIDTH 500 0
DWIDTH 12 0
BBX 12 24 0 -5
BITMAP
X ................
X ................
X ................
X ................
X .....**.........
X ....****........
X ...**..**.......
X ................
X ...******.......
X ..**....**......
X .**......**.....
X .**.............
X .**.............
X .**.............
X .**.............
X .**.............
X .**......**.....
X ..**....**......
X ...******.......
X ................
X ................
X ................
X ................
X ................
ENDCHAR
STARTCHAR Cdotaccent
ENCODING 266
SWIDTH 500 0
DWIDTH 12 0
BBX 12 24 0 -5
BITMAP
X .....**.........
X .....**.........
X .....**.........
X ................
X ...******.......
X ..**....**......
X .**......**.....
X .**......**.....
X .**.............
X .**.............
X .**.............
X .**.............
X .**.............
X .**.............
X .**.............
X .**......**.....
X .**......**.....
X ..**....**......
X ...******.......
X ................
X ................
X ................
X ................
X ................
ENDCHAR
STARTCHAR cdotaccent
ENCODING 267
SWIDTH 500 0
DWIDTH 12 0
BBX 12 24 0 -5
BITMAP
X ................
X ................
X ................
X ................
X .....**.........
X .....**.........
X .....**.........
X ................
X ...******.......
X ..**....**......
X .**......**.....
X .**.............
X .**.............
X .**.............
X .**.............
X .**.............
X .**......**.....
X ..**....**......
X ...******.......
X ................
X ................
X ................
X ................
X ................
ENDCHAR
STARTCHAR Ccaron
ENCODING 268
SWIDTH 500 0
DWIDTH 12 0
BBX 12 24 0 -5
BITMAP
X ...**..**.......
X ....****........
X .....**.........
X ................
X ...******.......
X ..**....**......
X .**......**.....
X .**......**.....
X .**.............
X .**.............
X .**.............
X .**.............
X .**.............
X .**.............
X .**.............
X .**......**.....
X .**......**.....
X ..**....**......
X ...******.......
X ................
X ................
X ................
X ................
X ................
ENDCHAR
STARTCHAR ccaron
ENCODING 269
SWIDTH 500 0
DWIDTH 12 0
BBX 12 24 0 -5
BITMAP
X ................
X ................
X ................
X ................
X ...**..**.......
X ....****........
X .....**.........
X ................
X ...******.......
X ..**....**......
X .**......**.....
X .**.............
X .**.............
X .**.............
X .**.............
X .**.............
X .**......**.....
X ..**....**......
X ...******.......
X ................
X ................
X ................
X ................
X ................
ENDCHAR
STARTCHAR Dcaron
ENCODING 270
SWIDTH 500 0
DWIDTH 12 0
BBX 12 24 0 -5
BITMAP
X ...**..**.......
X ....****........
X .....**.........
X ................
X .********.......
X .**.....**......
X .**......**.....
X .**......**.....
X .**......**.....
X .**......**.....
X .**......**.....
X .**......**.....
X .**......**.....
X .**......**.....
X .**......**.....
X .**......**.....
X .**......**.....
X .**.....**......
X .********.......
X ................
X ................
X ................
X ................
X ................
ENDCHAR
STARTCHAR dcaron
ENCODING 271
SWIDTH 500 0
DWIDTH 12 0
BBX 12 24 0 -5
BITMAP
X ...**..**.......
X ....****........
X .....**.........
X ................
X .........**.....
X .........**.....
X .........**.....
X .........**.....
X ...********.....
X ..**.....**.....
X .**......**.....
X .**......**.....
X .**......**.....
X .**......**.....
X .**......**.....
X .**......**.....
X .**......**.....
X ..**.....**.....
X ...********.....
X ................
X ................
X ................
X ................
X ................
ENDCHAR
STARTCHAR Dcroat
ENCODING 272
SWIDTH 500 0
DWIDTH 12 0
BBX 12 24 0 -5
BITMAP
X ................
X ................
X ................
X ................
X .********.......
X .**.....**......
X .**......**.....
X .**......**.....
X .**......**.....
X .**......**.....
X .**......**.....
X *******..**.....
X .**......**.....
X .**......**.....
X .**......**.....
X .**......**.....
X .**......**.....
X .**.....**......
X .********.......
X ................
X ................
X ................
X ................
X ................
ENDCHAR
STARTCHAR dcroat
ENCODING 273
SWIDTH 500 0
DWIDTH 12 0
BBX 12 24 0 -5
BITMAP
X ................
X ................
X ................
X ................
X .........**.....
X .....*******....
X .........**.....
X .........**.....
X ...********.....
X ..**.....**.....
X .**......**.....
X .**......**.....
X .**......**.....
X .**......**.....
X .**......**.....
X .**......**.....
X .**......**.....
X ..**.....**.....
X ...********.....
X ................
X ................
X ................
X ................
X ................
ENDCHAR
STARTCHAR Emacron
ENCODING 274
SWIDTH 500 0
DWIDTH 12 0
BBX 12 24 0 -5
BITMAP
X ................
X ..********......
X ................
X ................
X .**********.....
X .**.............
X .**.............
X .**.............
X .**.............
X .**.............
X .**.............
X .********.......
X .**.............
X .**.............
X .**.............
X .**.............
X .**.............
X .**.............
X .**********.....
X ................
X ................
X ................
X ................
X ................
ENDCHAR
STARTCHAR emacron
ENCODING 275
SWIDTH 500 0
DWIDTH 12 0
BBX 12 24 0 -5
BITMAP
X ................
X ................
X ................
X ................
X ................
X ..********......
X ................
X ................
X ...******.......
X ..**....**......
X .**......**.....
X .**......**.....
X .**......**.....
X .**********.....
X .**.............
X .**.............
X .**.............
X ..**.....**.....
X ...*******......
X ................
X ................
X ................
X ................
X ................
ENDCHAR
STARTCHAR Ebreve
ENCODING 276
SWIDTH 500 0
DWIDTH 12 0
BBX 12 24 0 -5
BITMAP
X ..**....**......
X ..**....**......
X ...******.......
X ................
X .**********.....
X .**.............
X .**.............
X .**.............
X .**.............
X .**.............
X .**.............
X .********.......
X .**.............
X .**.............
X .**.............
X .**.............
X .**.............
X .**.............
X .**********.....
X ................
X ................
X ................
X ................
X ................
ENDCHAR
STARTCHAR ebreve
ENCODING 277
SWIDTH 500 0
DWIDTH 12 0
BBX 12 24 0 -5
BITMAP
X ................
X ................
X ................
X ................
X ..**....**......
X ..**....**......
X ...******.......
X ................
X ...******.......
X ..**....**......
X .**......**.....
X .**......**.....
X .**......**.....
X .**********.....
X .**.............
X .**.............
X .**.............
X ..**.....**.....
X ...*******......
X ................
X ................
X ................
X ................
X ................
ENDCHAR
STARTCHAR Edotaccent
ENCODING 278
SWIDTH 500 0
DWIDTH 12 0
BBX 12 24 0 -5
BITMAP
X .....**.........
X .....**.........
X .....**.........
X ................
X .**********.....
X .**.............
X .**.............
X .**.............
X .**.............
X .**.............
X .**.............
X .********.......
X .**.............
X .**.............
X .**.............
X .**.............
X .**.............
X .**.............
X .**********.....
X ................
X ................
X ................
X ................
X ................
ENDCHAR
STARTCHAR edotaccent
ENCODING 279
SWIDTH 500 0
DWIDTH 12 0
BBX 12 24 0 -5
BITMAP
X ................
X ................
X ................
X ................
X .....**.........
X .....**.........
X .....**.........
X ................
X ...******.......
X ..**....**......
X .**......**.....
X .**......**.....
X .**......**.....
X .**********.....
X .**.............
X .**.............
X .**.............
X ..**.....**.....
X ...*******......
X ................
X ................
X ................
X ................
X ................
ENDCHAR
STARTCHAR Eogonek
ENCODING 280
SWIDTH 500 0
DWIDTH 12 0
BBX 12 24 0 -5
BITMAP
X ................
X ................
X ................
X ................
X .**********.....
X .**.............
X .**.............
X .**.............
X .**.............
X .**.............
X .**.............
X .********.......
X .**.............
X .**.............
X .**.............
X .**.............
X .**.............
X .**.............
X .**********.....
X ........***.....
X .......**.......
X .......**.......
X ........****....
X ................
ENDCHAR
STARTCHAR eogonek
ENCODING 281
SWIDTH 500 0
DWIDTH 12 0
BBX 12 24 0 -5
BITMAP
X ................
X ................
X ................
X ................
X ................
X ................
X ................
X ................
X ...******.......
X ..**....**......
X .**......**.....
X .**......**.....
X .**......**.....
X .**********.....
X .**.............
X .**.............
X .**.............
X ..**.....**.....
X ...*******......
X .....***........
X ....**..........
X ....**..........
X .....****.......
X ................
ENDCHAR
STARTCHAR Ecaron
ENCODING 282
SWIDTH 500 0
DWIDTH 12 0
BBX 12 24 0 -5
BITMAP
X ...**..**.......
X ....****........
X .....**.........
X ................
X .**********.....
X .**.............
X .**.............
X .**.............
X .**.............
X .**.............
X .**.............
X .********.......
X .**.............
X .**.............
X .**.............
X .**.............
X .**.............
X .**.............
X .**********.....
X ................
X ................
X ................
X ................
X ................
ENDCHAR
STARTCHAR ecaron
ENCODING 283
SWIDTH 500 0
DWIDTH 12 0
BBX 12 24 0 -5
BITMAP
X ................
X ................
X ................
X ................
X ...**..**.......
X ....****........
X .....**.........
X ................
X ...******.......
X ..**....**......
X .**......**.....
X .**......**.....
X .**......**.....
X .**********.....
X .**.............
X .**.............
X .**.............
X ..**.....**.....
X ...*******......
X ................
X ................
X ................
X ................
X ................
ENDCHAR
STARTCHAR Gcircumflex
ENCODING 284
SWIDTH 500 0
DWIDTH 12 0
BBX 12 24 0 -5
BITMAP
X .....**.........
X ....****........
X ...**..**.......
X ................
X ...******.......
X ..**....**......
X .**......**.....
X .**......**.....
X .**.............
X .**.............
X .**.............
X .**...*****.....
X .**......**.....
X .**......**.....
X .**......**.....
X .**......**.....
X .**......**.....
X ..**....**......
X ...******.......
X ................
X ................
X ................
X ................
X ................
ENDCHAR
STARTCHAR gcircumflex
ENCODING 285
SWIDTH 500 0
DWIDTH 12 0
BBX 12 24 0 -5
BITMAP
X ................
X ................
X ................
X ................
X .....**.........
X ....****........
X ...**..**.......
X ................
X ...********.....
X ..**.....**.....
X .**......**.....
X .**......**.....
X .**......**.....
X .**......**.....
X .**......**.....
X .**......**.....
X .**......**.....
X ..**....***.....
X ...********.....
X .........**.....
X .........**.....
X ........**......
X ..*******.......
X ................
ENDCHAR
STARTCHAR Gbreve
ENCODING 286
SWIDTH 500 0
DWIDTH 12 0
BBX 12 24 0 -5
BITMAP
X ..**....**......
X ..**....**......
X ...******.......
X ................
X ...******.......
X ..**....**......
X .**......**.....
X .**......**.....
X .**.............
X .**.............
X .**.............
X .**...*****.....
X .**......**.....
X .**......**.....
X .**......**.....
X .**......**.....
X .**......**.....
X ..**....**......
X ...******.......
X ................
X ................
X ................
X ................
X ................
ENDCHAR
STARTCHAR gbreve
ENCODING 287
SWIDTH 500 0
DWIDTH 12 0
BBX 12 24 0 -5
BITMAP
X ................
X ................
X ................
X ................
X ..**....**......
X ..**....**......
X ...******.......
X ................
X ...********.....
X ..**.....**.....
X .**......**.....
X .**......**.....
X .**......**.....
X .**......**.....
X .**......**.....
X .**......**.....
X .**......**.....
X ..**....***.....
X ...********.....
X .........**.....
X .........**.....
X ........**......
X ..*******.......
X ................
ENDCHAR
STARTCHAR Gdotaccent
ENCODING 288
SWIDTH 500 0
DWIDTH 12 0
BBX 12 24 0 -5
BITMAP
X .....**.........
X .....**.........
X .....**.........
X ................
X ...******.......
X ..**....**......
X .**......**.....
X .**......**.....
X .**.............
X .**.............
X .**.............
X .**...*****.....
X .**......**.....
X .**......**.....
X .**......**.....
X .**......**.....
X .**......**.....
X ..**....**......
X ...******.......
X ................
X ................
X ................
X ................
X ................
ENDCHAR
STARTCHAR gdotaccent
ENCODING 289
SWIDTH 500 0
DWIDTH 12 0
BBX 12 24 0 -5
BITMAP
X ................
X ................
X ................
X ................
X ......**........
X ......**........
X ......**........
X ................
X ...********.....
X ..**.....**.....
X .**......**.....
X .**......**.....
X .**......**.....
X .**......**.....
X .**......**.....
X .**......**.....
X .**......**.....
X ..**....***.....
X ...********.....
X .........**.....
X .........**.....
X ........**......
X ..*******.......
X ................
ENDCHAR
STARTCHAR Gcommaaccent
ENCODING 290
SWIDTH 500 0
DWIDTH 12 0
BBX 12 24 0 -5
BITMAP
X ................
X ................
X ................
X ................
X ...******.......
X ..**....**......
X .**......**.....
X .**......**.....
X .**.............
X .**.............
X .**.............
X .**...*****.....
X .**......**.....
X .**......**.....
X .**......**.....
X .**......**.....
X .**......**.....
X ..**....**......
X ...******.......
X ................
X .....**.........
X .....**.........
X .....**.........
X ....**..........
ENDCHAR
STARTCHAR gcommaaccent
ENCODING 291
SWIDTH 500 0
DWIDTH 12 0
BBX 12 24 0 -5
BITMAP
X ................
X ................
X ................
X .......**.......
X ......**........
X ......**........
X ......**........
X ................
X ...********.....
X ..**.....**.....
X .**......**.....
X .**......**.....
X .**......**.....
X .**......**.....
X .**......**.....
X .**......**.....
X .**......**.....
X ..**....***.....
X ...********.....
X .........**.....
X .........**.....
X ........**......
X ..*******.......
X ................
ENDCHAR
STARTCHAR Hcircumflex
ENCODING 292
SWIDTH 500 0
DWIDTH 12 0
BBX 12 24 0 -5
BITMAP
X .....**.........
X ....****........
X ...**..**.......
X ................
X .**......**.....
X .**......**.....
X .**......**.....
X .**......**.....
X .**......**.....
X .**......**.....
X .**......**.....
X .**********.....
X .**......**.....
X .**......**.....
X .**......**.....
X .**......**.....
X .**......**.....
X .**......**.....
X .**......**.....
X ................
X ................
X ................
X ................
X ................
ENDCHAR
STARTCHAR hcircumflex
ENCODING 293
SWIDTH 500 0
DWIDTH 12 0
BBX 12 24 0 -5
BITMAP
X .....**.........
X ....****........
X ...**..**.......
X ................
X .**.............
X .**.............
X .**.............
X .**.............
X .********.......
X .**.....**......
X .**......**.....
X .**......**.....
X .**......**.....
X .**......**.....
X .**......**.....
X .**......**.....
X .**......**.....
X .**......**.....
X .**......**.....
X ................
X ................
X ................
X ................
X ................
ENDCHAR
STARTCHAR Hbar
ENCODING 294
SWIDTH 500 0
DWIDTH 12 0
BBX 12 24 0 -5
BITMAP
X ................
X ................
X ................
X ................
X .**......**.....
X .**......**.....
X .**......**.....
X ************....
X .**......**.....
X .**......**.....
X .**......**.....
X .**********.....
X .**......**.....
X .**......**.....
X .**......**.....
X .**......**.....
X .**......**.....
X .**......**.....
X .**......**.....
X ................
X ................
X ................
X ................
X ................
ENDCHAR
STARTCHAR hbar
ENCODING 295
SWIDTH 500 0
DWIDTH 12 0
BBX 12 24 0 -5
BITMAP
X ................
X ................
X ................
X ................
X .**.............
X *******.........
X .**.............
X .**.............
X .********.......
X .**.....**......
X .**......**.....
X .**......**.....
X .**......**.....
X .**......**.....
X .**......**.....
X .**......**.....
X .**......**.....
X .**......**.....
X .**......**.....
X ................
X ................
X ................
X ................
X ................
ENDCHAR
STARTCHAR Itilde
ENCODING 296
SWIDTH 500 0
DWIDTH 12 0
BBX 12 24 0 -5
BITMAP
X ...***..**......
X ..**.**.**......
X ..**..***.......
X ................
X ...******.......
X .....**.........
X .....**.........
X .....**.........
X .....**.........
X .....**.........
X .....**.........
X .....**.........
X .....**.........
X .....**.........
X .....**.........
X .....**.........
X .....**.........
X .....**.........
X ...******.......
X ................
X ................
X ................
X ................
X ................
ENDCHAR
STARTCHAR itilde
ENCODING 297
SWIDTH 500 0
DWIDTH 12 0
BBX 12 24 0 -5
BITMAP
X ................
X ................
X ................
X ................
X ...***..**......
X ..**.**.**......
X ..**..***.......
X ................
X ...****.........
X .....**.........
X .....**.........
X .....**.........
X .....**.........
X .....**.........
X .....**.........
X .....**.........
X .....**.........
X .....**.........
X ...******.......
X ................
X ................
X ................
X ................
X ................
ENDCHAR
STARTCHAR Imacron
ENCODING 298
SWIDTH 500 0
DWIDTH 12 0
BBX 12 24 0 -5
BITMAP
X ................
X ..********......
X ................
X ................
X ...******.......
X .....**.........
X .....**.........
X .....**.........
X .....**.........
X .....**.........
X .....**.........
X .....**.........
X .....**.........
X .....**.........
X .....**.........
X .....**.........
X .....**.........
X .....**.........
X ...******.......
X ................
X ................
X ................
X ................
X ................
ENDCHAR
STARTCHAR imacron
ENCODING 299
SWIDTH 500 0
DWIDTH 12 0
BBX 12 24 0 -5
BITMAP
X ................
X ................
X ................
X ................
X ................
X ..********......
X ................
X ................
X ...****.........
X .....**.........
X .....**.........
X .....**.........
X .....**.........
X .....**.........
X .....**.........
X .....**.........
X .....**.........
X .....**.........
X ...******.......
X ................
X ................
X ................
X ................
X ................
ENDCHAR
STARTCHAR Ibreve
ENCODING 300
SWIDTH 500 0
DWIDTH 12 0
BBX 12 24 0 -5
BITMAP
X ..**....**......
X ..**....**......
X ...******.......
X ................
X ...******.......
X .....**.........
X .....**.........
X .....**.........
X .....**.........
X .....**.........
X .....**.........
X .....**.........
X .....**.........
X .....**.........
X .....**.........
X .....**.........
X .....**.........
X .....**.........
X ...******.......
X ................
X ................
X ................
X ................
X ................
ENDCHAR
STARTCHAR ibreve
ENCODING 301
SWIDTH 500 0
DWIDTH 12 0
BBX 12 24 0 -5
BITMAP
X ................
X ................
X ................
X ................
X ..**....**......
X ..**....**......
X ...******.......
X ................
X ...****.........
X .....**.........
X .....**.........
X .....**.........
X .....**.........
X .....**.........
X .....**.........
X .....**.........
X .....**.........
X .....**.........
X ...******.......
X ................
X ................
X ................
X ................
X ................
ENDCHAR
STARTCHAR Iogonek
ENCODING 302
SWIDTH 500 0
DWIDTH 12 0
BBX 12 24 0 -5
BITMAP
X ................
X ................
X ................
X ................
X ...******.......
X .....**.........
X .....**.........
X .....**.........
X .....**.........
X .....**.........
X .....**.........
X .....**.........
X .....**.........
X .....**.........
X .....**.........
X .....**.........
X .....**.........
X .....**.........
X ...******.......
X .....**.........
X ....**..........
X ....**..........
X .....****.......
X ................
ENDCHAR
STARTCHAR iogonek
ENCODING 303
SWIDTH 500 0
DWIDTH 12 0
BBX 12 24 0 -5
BITMAP
X ................
X ................
X ................
X ................
X .....**.........
X .....**.........
X .....**.........
X ................
X ...****.........
X .....**.........
X .....**.........
X .....**.........
X .....**.........
X .....**.........
X .....**.........
X .....**.........
X .....**.........
X .....**.........
X ...******.......
X .....**.........
X ....**..........
X ....**..........
X .....****.......
X ................
ENDCHAR
STARTCHAR Idotaccent
ENCODING 304
SWIDTH 500 0
DWIDTH 12 0
BBX 12 24 0 -5
BITMAP
X .....**.........
X .....**.........
X .....**.........
X ................
X ...******.......
X .....**.........
X .....**.........
X .....**.........
X .....**.........
X .....**.........
X .....**.........
X .....**.........
X .....**.........
X .....**.........
X .....**.........
X .....**.........
X .....**.........
X .....**.........
X ...******.......
X ................
X ................
X ................
X ................
X ................
ENDCHAR
STARTCHAR dotlessi
ENCODING 305
SWIDTH 500 0
DWIDTH 12 0
BBX 12 24 0 -5
BITMAP
X ................
X ................
X ................
X ................
X ................
X ................
X ................
X ................
X ...****.........
X .....**.........
X .....**.........
X .....**.........
X .....**.........
X .....**.........
X .....**.........
X .....**.........
X .....**.........
X .....**.........
X ...******.......
X ................
X ................
X ................
X ................
X ................
ENDCHAR
STARTCHAR IJ
ENCODING 306
SWIDTH 500 0
DWIDTH 12 0
BBX 12 24 0 -5
BITMAP
X ................
X ................
X ................
X ................
X ****....****....
X .**......**.....
X .**......**.....
X .**......**.....
X .**......**.....
X .**......**.....
X .**......**.....
X .**......**.....
X .**......**.....
X .**......**.....
X .**.**...**.....
X .**.**...**.....
X .**.**...**.....
X .**.**...**.....
X ****.*****......
X ................
X ................
X ................
X ................
X ................
ENDCHAR
STARTCHAR ij
ENCODING 307
SWIDTH 500 0
DWIDTH 12 0
BBX 12 24 0 -5
BITMAP
X ................
X ................
X ................
X ................
X .**......**.....
X .**......**.....
X .**......**.....
X ................
X ***.....***.....
X .**......**.....
X .**......**.....
X .**......**.....
X .**......**.....
X .**......**.....
X .**......**.....
X .**......**.....
X .**......**.....
X .**......**.....
X ****.....**.....
X ....**...**.....
X ....**...**.....
X ....**...**.....
X .....*****......
X ................
ENDCHAR
STARTCHAR Jcircumflex
ENCODING 308
SWIDTH 500 0
DWIDTH 12 0
BBX 12 24 0 -5
BITMAP
X ........**......
X .......****.....
X ......**..**....
X ................
X ......******....
X ........**......
X ........**......
X ........**......
X ........**......
X ........**......
X ........**......
X ........**......
X ........**......
X ........**......
X .**.....**......
X .**.....**......
X .**.....**......
X ..**...**.......
X ...*****........
X ................
X ................
X ................
X ................
X ................
ENDCHAR
STARTCHAR jcircumflex
ENCODING 309
SWIDTH 500 0
DWIDTH 12 0
BBX 12 24 0 -5
BITMAP
X ................
X ................
X ................
X ................
X ........**......
X .......****.....
X ......**..**....
X ................
X ......****......
X ........**......
X ........**......
X ........**......
X ........**......
X ........**......
X ........**......
X ........**......
X ........**......
X ........**......
X ........**......
X ..**....**......
X ..**....**......
X ...**..**.......
X ....****........
X ................
ENDCHAR
STARTCHAR Kcommaaccent
ENCODING 310
SWIDTH 500 0
DWIDTH 12 0
BBX 12 24 0 -5
BITMAP
X ................
X ................
X ................
X ................
X .**......**.....
X .**.....**......
X .**....**.......
X .**...**........
X .**..**.........
X .**.**..........
X .****...........
X .***............
X .****...........
X .**.**..........
X .**..**.........
X .**...**........
X .**....**.......
X .**.....**......
X .**......**.....
X ................
X .....**.........
X .....**.........
X .....**.........
X ....**..........
ENDCHAR
STARTCHAR kcommaaccent
ENCODING 311
SWIDTH 500 0
DWIDTH 12 0
BBX 12 24 0 -5
BITMAP
X ................
X ................
X ................
X ................
X ..**............
X ..**............
X ..**............
X ..**............
X ..**.....**.....
X ..**....**......
X ..**...**.......
X ..**..**........
X ..**.**.........
X ..****..........
X ..**.**.........
X ..**..**........
X ..**...**.......
X ..**....**......
X ..**.....**.....
X ................
X .....**.........
X .....**.........
X .....**.........
X ....**..........
ENDCHAR
STARTCHAR kgreenlandic
ENCODING 312
SWIDTH 500 0
DWIDTH 12 0
BBX 12 24 0 -5
BITMAP
X ................
X ................
X ................
X ................
X ................
X ................
X ................
X ................
X ..**.....**.....
X ..**....**......
X ..**...**.......
X ..**..**........
X ..**.**.........
X ..****..........
X ..**.**.........
X ..**..**........
X ..**...**.......
X ..**....**......
X ..**.....**.....
X ................
X ................
X ................
X ................
X ................
ENDCHAR
STARTCHAR Lacute
ENCODING 313
SWIDTH 500 0
DWIDTH 12 0
BBX 12 24 0 -5
BITMAP
X ...**...........
X ..**............
X .**.............
X ................
X .**.............
X .**.............
X .**.............
X .**.............
X .**.............
X .**.............
X .**.............
X .**.............
X .**.............
X .**.............
X .**.............
X .**.............
X .**.............
X .**.............
X .**********.....
X ................
X ................
X ................
X ................
X ................
ENDCHAR
STARTCHAR lacute
ENCODING 314
SWIDTH 500 0
DWIDTH 12 0
BBX 12 24 0 -5
BITMAP
X .......**.......
X ......**........
X .....**.........
X ................
X ...****.........
X .....**.........
X .....**.........
X .....**.........
X .....**.........
X .....**.........
X .....**.........
X .....**.........
X .....**.........
X .....**.........
X .....**.........
X .....**.........
X .....**.........
X .....**.........
X ...******.......
X ................
X ................
X ................
X ................
X ................
ENDCHAR
STARTCHAR Lcommaaccent
ENCODING 315
SWIDTH 500 0
DWIDTH 12 0
BBX 12 24 0 -5
BITMAP
X ................
X ................
X ................
X ................
X .**.............
X .**.............
X .**.............
X .**.............
X .**.............
X .**.............
X .**.............
X .**.............
X .**.............
X .**.............
X .**.............
X .**.............
X .**.............
X .**.............
X .**********.....
X ................
X .....**.........
X .....**.........
X .....**.........
X ....**..........
ENDCHAR
STARTCHAR lcommaaccent
ENCODING 316
SWIDTH 500 0
DWIDTH 12 0
BBX 12 24 0 -5
BITMAP
X ................
X ................
X ................
X ................
X ...****.........
X .....**.........
X .....**.........
X .....**.........
X .....**.........
X .....**.........
X .....**.........
X .....**.........
X .....**.........
X .....**.........
X .....**.........
X .....**.........
X .....**.........
X .....**.........
X ...******.......
X ................
X .....**.........
X .....**.........
X .....**.........
X ....**..........
ENDCHAR
STARTCHAR Lcaron
ENCODING 317
SWIDTH 500 0
DWIDTH 12 0
BBX 12 24 0 -5
BITMAP
X ...**..**.......
X ....****........
X .....**.........
X ................
X .**.............
X .**.............
X .**.............
X .**.............
X .**.............
X .**.............
X .**.............
X .**.............
X .**.............
X .**.............
X .**.............
X .**.............
X .**.............
X .**.............
X .**********.....
X ................
X ................
X ................
X ................
X ................
ENDCHAR
STARTCHAR lcaron
ENCODING 318
SWIDTH 500 0
DWIDTH 12 0
BBX 12 24 0 -5
BITMAP
X ...**..**.......
X ....****........
X .....**.........
X ................
X ...****.........
X .....**.........
X .....**.........
X .....**.........
X .....**.........
X .....**.........
X .....**.........
X .....**.........
X .....**.........
X .....**.........
X .....**.........
X .....**.........
X .....**.........
X .....**.........
X ...******.......
X ................
X ................
X ................
X ................
X ................
ENDCHAR
STARTCHAR Ldot
ENCODING 319
SWIDTH 500 0
DWIDTH 12 0
BBX 12 24 0 -5
BITMAP
X ................
X ................
X ................
X ................
X .**.............
X .**.............
X .**.............
X .**.............
X .**.............
X .**.............
X .**....**.......
X .**....**.......
X .**....**.......
X .**.............
X .**.............
X .**.............
X .**.............
X .**.............
X .**********.....
X ................
X ................
X ................
X ................
X ................
ENDCHAR
STARTCHAR ldot
ENCODING 320
SWIDTH 500 0
DWIDTH 12 0
BBX 12 24 0 -5
BITMAP
X ................
X ................
X ................
X ................
X ...****.........
X .....**.........
X .....**.........
X .....**.........
X .....**.........
X .....**.........
X .....**...**....
X .....**...**....
X .....**...**....
X .....**.........
X .....**.........
X .....**.........
X .....**.........
X .....**.........
X ...******.......
X ................
X ................
X ................
X ................
X ................
ENDCHAR
STARTCHAR Lslash
ENCODING 321
SWIDTH 500 0
DWIDTH 12 0
BBX 12 24 0 -5
BITMAP
X ................
X ................
X ................
X ................
X ..**............
X ..**............
X ..**............
X ..**............
X ..**............
X ..****..........
X ..***...........
X ..**............
X .***............
X ****............
X ..**............
X ..**............
X ..**............
X ..**............
X ..**********....
X ................
X ................
X ................
X ................
X ................
ENDCHAR
STARTCHAR lslash
ENCODING 322
SWIDTH 500 0
DWIDTH 12 0
BBX 12 24 0 -5
BITMAP
X ................
X ................
X ................
X ................
X ...****.........
X .....**.........
X .....**.........
X .....**.........
X .....**.........
X .....****.......
X .....***........
X .....**.........
X ....***.........
X ...****.........
X .....**.........
X .....**.........
X .....**.........
X .....**.........
X ...******.......
X ................
X ................
X ................
X ................
X ................
ENDCHAR
STARTCHAR Nacute
ENCODING 323
SWIDTH 500 0
DWIDTH 12 0
BBX 12 24 0 -5
BITMAP
X .......**.......
X ......**........
X .....**.........
X ................
X .**......**.....
X .**......**.....
X .**......**.....
X .**......**.....
X .***.....**.....
X .****....**.....
X .**.**...**.....
X .**..**..**.....
X .**...**.**.....
X .**....****.....
X .**.....***.....
X .**......**.....
X .**......**.....
X .**......**.....
X .**......**.....
X ................
X ................
X ................
X ................
X ................
ENDCHAR
STARTCHAR nacute
ENCODING 324
SWIDTH 500 0
DWIDTH 12 0
BBX 12 24 0 -5
BITMAP
X ................
X ................
X ................
X ................
X .......**.......
X ......**........
X .....**.........
X ................
X .********.......
X .**.....**......
X .**......**.....
X .**......**.....
X .**......**.....
X .**......**.....
X .**......**.....
X .**......**.....
X .**......**.....
X .**......**.....
X .**......**.....
X ................
X ................
X ................
X ................
X ................
ENDCHAR
STARTCHAR Ncommaaccent
ENCODING 325
SWIDTH 500 0
DWIDTH 12 0
BBX 12 24 0 -5
BITMAP
X ................
X ................
X ................
X ................
X .**......**.....
X .**......**.....
X .**......**.....
X .**......**.....
X .***.....**.....
X .****....**.....
X .**.**...**.....
X .**..**..**.....
X .**...**.**.....
X .**....****.....
X .**.....***.....
X .**......**.....
X .**......**.....
X .**......**.....
X .**......**.....
X ................
X .....**.........
X .....**.........
X .....**.........
X ....**..........
ENDCHAR
STARTCHAR ncommaaccent
ENCODING 326
SWIDTH 500 0
DWIDTH 12 0
BBX 12 24 0 -5
BITMAP
X ................
X ................
X ................
X ................
X ................
X ................
X ................
X ................
X .********.......
X .**.....**......
X .**......**.....
X .**......**.....
X .**......**.....
X .**......**.....
X .**......**.....
X .**......**.....
X .**......**.....
X .**......**.....
X .**......**.....
X ................
X .....**.........
X .....**.........
X .....**.........
X ....**..........
ENDCHAR
STARTCHAR Ncaron
ENCODING 327
SWIDTH 500 0
DWIDTH 12 0
BBX 12 24 0 -5
BITMAP
X ...**..**.......
X ....****........
X .....**.........
X ................
X .**......**.....
X .**......**.....
X .**......**.....
X .**......**.....
X .***.....**.....
X .****....**.....
X .**.**...**.....
X .**..**..**.....
X .**...**.**.....
X .**....****.....
X .**.....***.....
X .**......**.....
X .**......**.....
X .**......**.....
X .**......**.....
X ................
X ................
X ................
X ................
X ................
ENDCHAR
STARTCHAR ncaron
ENCODING 328
SWIDTH 500 0
DWIDTH 12 0
BBX 12 24 0 -5
BITMAP
X ................
X ................
X ................
X ................
X ...**..**.......
X ....****........
X .....**.........
X ................
X .********.......
X .**.....**......
X .**......**.....
X .**......**.....
X .**......**.....
X .**......**.....
X .**......**.....
X .**......**.....
X .**......**.....
X .**......**.....
X .**......**.....
X ................
X ................
X ................
X ................
X ................
ENDCHAR
STARTCHAR napostrophe
ENCODING 329
SWIDTH 500 0
DWIDTH 12 0
BBX 12 24 0 -5
BITMAP
X ................
X ................
X .**.............
X .**.............
X .**.............
X .**.............
X **..............
X ................
X .********.......
X .**.....**......
X .**......**.....
X .**......**.....
X .**......**.....
X .**......**.....
X .**......**.....
X .**......**.....
X .**......**.....
X .**......**.....
X .**......**.....
X ................
X ................
X ................
X ................
X ................
ENDCHAR
STARTCHAR Eng
ENCODING 330
SWIDTH 500 0
DWIDTH 12 0
BBX 12 24 0 -5
BITMAP
X ................
X ................
X ................
X ................
X .**......**.....
X .**......**.....
X .**......**.....
X .**......**.....
X .***.....**.....
X .****....**.....
X .**.**...**.....
X .**..**..**.....
X .**...**.**.....
X .**....****.....
X .**.....***.....
X .**......**.....
X .**......**.....
X .**......**.....
X .**......**.....
X .........**.....
X .........**.....
X ........**......
X ......***.......
X ................
ENDCHAR
STARTCHAR eng
ENCODING 331
SWIDTH 500 0
DWIDTH 12 0
BBX 12 24 0 -5
BITMAP
X ................
X ................
X ................
X ................
X ................
X ................
X ................
X ................
X .********.......
X .**.....**......
X .**......**.....
X .**......**.....
X .**......**.....
X .**......**.....
X .**......**.....
X .**......**.....
X .**......**.....
X .**......**.....
X .**......**.....
X .........**.....
X .........**.....
X ........**......
X ......***.......
X ................
ENDCHAR
STARTCHAR Omacron
ENCODING 332
SWIDTH 500 0
DWIDTH 12 0
BBX 12 24 0 -5
BITMAP
X ................
X ..********......
X ................
X ................
X ...******.......
X ..**....**......
X .**......**.....
X .**......**.....
X .**......**.....
X .**......**.....
X .**......**.....
X .**......**.....
X .**......**.....
X .**......**.....
X .**......**.....
X .**......**.....
X .**......**.....
X ..**....**......
X ...******.......
X ................
X ................
X ................
X ................
X ................
ENDCHAR
STARTCHAR omacron
ENCODING 333
SWIDTH 500 0
DWIDTH 12 0
BBX 12 24 0 -5
BITMAP
X ................
X ................
X ................
X ................
X ................
X ..********......
X ................
X ................
X ...******.......
X ..**....**......
X .**......**.....
X .**......**.....
X .**......**.....
X .**......**.....
X .**......**.....
X .**......**.....
X .**......**.....
X ..**....**......
X ...******.......
X ................
X ................
X ................
X ................
X ................
ENDCHAR
STARTCHAR Obreve
ENCODING 334
SWIDTH 500 0
DWIDTH 12 0
BBX 12 24 0 -5
BITMAP
X ..**....**......
X ..**....**......
X ...******.......
X ................
X ...******.......
X ..**....**......
X .**......**.....
X .**......**.....
X .**......**.....
X .**......**.....
X .**......**.....
X .**......**.....
X .**......**.....
X .**......**.....
X .**......**.....
X .**......**.....
X .**......**.....
X ..**....**......
X ...******.......
X ................
X ................
X ................
X ................
X ................
ENDCHAR
STARTCHAR obreve
ENCODING 335
SWIDTH 500 0
DWIDTH 12 0
BBX 12 24 0 -5
BITMAP
X ................
X ................
X ................
X ................
X ..**....**......
X ..**....**......
X ...******.......
X ................
X ...******.......
X ..**....**......
X .**......**.....
X .**......**.....
X .**......**.....
X .**......**.....
X .**......**.....
X .**......**.....
X .**......**.....
X ..**....**......
X ...******.......
X ................
X ................
X ................
X ................
X ................
ENDCHAR
STARTCHAR Ohungarumlaut
ENCODING 336
SWIDTH 500 0
DWIDTH 12 0
BBX 12 24 0 -5
BITMAP
X .....**..**.....
X ....**..**......
X ...**..**.......
X ................
X ...******.......
X ..**....**......
X .**......**.....
X .**......**.....
X .**......**.....
X .**......**.....
X .**......**.....
X .**......**.....
X .**......**.....
X .**......**.....
X .**......**.....
X .**......**.....
X .**......**.....
X ..**....**......
X ...******.......
X ................
X ................
X ................
X ................
X ................
ENDCHAR
STARTCHAR ohungarumlaut
ENCODING 337
SWIDTH 500 0
DWIDTH 12 0
BBX 12 24 0 -5
BITMAP
X ................
X ................
X ................
X ................
X .....**..**.....
X ....**..**......
X ...**..**.......
X ................
X ...******.......
X ..**....**......
X .**......**.....
X .**......**.....
X .**......**.....
X .**......**.....
X .**......**.....
X .**......**.....
X .**......**.....
X ..**....**......
X ...******.......
X ................
X ................
X ................
X ................
X ................
ENDCHAR
STARTCHAR OE
ENCODING 338
SWIDTH 500 0
DWIDTH 12 0
BBX 12 24 0 -5
BITMAP
X ................
X ................
X ................
X ................
X ..**********....
X .**...**........
X **....**........
X **....**........
X **....**........
X **....**........
X **....**........
X **....******....
X **....**........
X **....**........
X **....**........
X **....**........
X **....**........
X .**...**........
X ..**********....
X ................
X ................
X ................
X ................
X ................
ENDCHAR
STARTCHAR oe
ENCODING 339
SWIDTH 500 0
DWIDTH 12 0
BBX 12 24 0 -5
BITMAP
X ................
X ................
X ................
X ................
X ................
X ................
X ................
X ................
X ..********......
X .**..**..**.....
X **...**...**....
X **...**...**....
X **...**...**....
X **...*******....
X **...**.........
X **...**.........
X **...**.........
X .**..**...**....
X ..*********.....
X ................
X ................
X ................
X ................
X ................
ENDCHAR
STARTCHAR Racute
ENCODING 340
SWIDTH 500 0
DWIDTH 12 0
BBX 12 24 0 -5
BITMAP
X .......**.......
X ......**........
X .....**.........
X ................
X .********.......
X .**.....**......
X .**......**.....
X .**......**.....
X .**......**.....
X .**......**.....
X .**.....**......
X .********.......
X .****...........
X .**.**..........
X .**..**.........
X .**...**........
X .**....**.......
X .**.....**......
X .**......**.....
X ................
X ................
X ................
X ................
X ................
ENDCHAR
STARTCHAR racute
ENCODING 341
SWIDTH 500 0
DWIDTH 12 0
BBX 12 24 0 -5
BITMAP
X ................
X ................
X ................
X ................
X .......**.......
X ......**........
X .....**.........
X ................
X .**..******.....
X .**.**..........
X .****...........
X .***............
X .**.............
X .**.............
X .**.............
X .**.............
X .**.............
X .**.............
X .**.............
X ................
X ................
X ................
X ................
X ................
ENDCHAR
STARTCHAR Rcommaaccent
ENCODING 342
SWIDTH 500 0
DWIDTH 12 0
BBX 12 24 0 -5
BITMAP
X ................
X ................
X ................
X ................
X .********.......
X .**.....**......
X .**......**.....
X .**......**.....
X .**......**.....
X .**......**.....
X .**.....**......
X .********.......
X .****...........
X .**.**..........
X .**..**.........
X .**...**........
X .**....**.......
X .**.....**......
X .**......**.....
X ................
X .....**.........
X .....**.........
X .....**.........
X ....**..........
ENDCHAR
STARTCHAR rcommaaccent
ENCODING 343
SWIDTH 500 0
DWIDTH 12 0
BBX 12 24 0 -5
BITMAP
X ................
X ................
X ................
X ................
X ................
X ................
X ................
X ................
X .**..******.....
X .**.**..........
X .****...........
X .***............
X .**.............
X .**.............
X .**.............
X .**.............
X .**.............
X .**.............
X .**.............
X ................
X .**.............
X .**.............
X .**.............
X **..............
ENDCHAR
STARTCHAR Rcaron
ENCODING 344
SWIDTH 500 0
DWIDTH 12 0
BBX 12 24 0 -5
BITMAP
X ...**..**.......
X ....****........
X .....**.........
X ................
X .********.......
X .**.....**......
X .**......**.....
X .**......**.....
X .**......**.....
X .**......**.....
X .**.....**......
X .********.......
X .****...........
X .**.**..........
X .**..**.........
X .**...**........
X .**....**.......
X .**.....**......
X .**......**.....
X ................
X ................
X ................
X ................
X ................
ENDCHAR
STARTCHAR rcaron
ENCODING 345
SWIDTH 500 0
DWIDTH 12 0
BBX 12 24 0 -5
BITMAP
X ................
X ................
X ................
X ................
X ...**..**.......
X ....****........
X .....**.........
X ................
X .**..******.....
X .**.**..........
X .****...........
X .***............
X .**.............
X .**.............
X .**.............
X .**.............
X .**.............
X .**.............
X .**.............
X ................
X ................
X ................
X ................
X ................
ENDCHAR
STARTCHAR Sacute
ENCODING 346
SWIDTH 500 0
DWIDTH 12 0
BBX 12 24 0 -5
BITMAP
X .......**.......
X ......**........
X .....**.........
X ................
X ...******.......
X ..**....**......
X .**......**.....
X .**.............
X .**.............
X .**.............
X ..**............
X ...******.......
X ........**......
X .........**.....
X .........**.....
X .........**.....
X .**......**.....
X ..**....**......
X ...******.......
X ................
X ................
X ................
X ................
X ................
ENDCHAR
STARTCHAR sacute
ENCODING 347
SWIDTH 500 0
DWIDTH 12 0
BBX 12 24 0 -5
BITMAP
X ................
X ................
X ................
X ................
X .......**.......
X ......**........
X .....**.........
X ................
X ..********......
X .**......**.....
X .**.............
X .**.............
X .**.............
X ..********......
X .........**.....
X .........**.....
X .........**.....
X .**......**.....
X ..********......
X ................
X ................
X ................
X ................
X ................
ENDCHAR
STARTCHAR Scircumflex
ENCODING 348
SWIDTH 500 0
DWIDTH 12 0
BBX 12 24 0 -5
BITMAP
X .....**.........
X ....****........
X ...**..**.......
X ................
X ...******.......
X ..**....**......
X .**......**.....
X .**.............
X .**.............
X .**.............
X ..**............
X ...******.......
X ........**......
X .........**.....
X .........**.....
X .........**.....
X .**......**.....
X ..**....**......
X ...******.......
X ................
X ................
X ................
X ................
X ................
ENDCHAR
STARTCHAR scircumflex
ENCODING 349
SWIDTH 500 0
DWIDTH 12 0
BBX 12 24 0 -5
BITMAP
X ................
X ................
X ................
X ................
X .....**.........
X ....****........
X ...**..**.......
X ................
X ..********......
X .**......**.....
X .**.............
X .**.............
X .**.............
X ..********......
X .........**.....
X .........**.....
X .........**.....
X .**......**.....
X ..********......
X ................
X ................
X ................
X ................
X ................
ENDCHAR
STARTCHAR Scedilla
ENCODING 350
SWIDTH 500 0
DWIDTH 12 0
BBX 12 24 0 -5
BITMAP
X ................
X ................
X ................
X ................
X ...******.......
X ..**....**......
X .**......**.....
X .**.............
X .**.............
X .**.............
X ..**............
X ...******.......
X ........**......
X .........**.....
X .........**.....
X .........**.....
X .**......**.....
X ..**....**......
X ...******.......
X .....**.........
X .....**.........
X .....**.........
X ....**..........
X ................
ENDCHAR
STARTCHAR scedilla
ENCODING 351
SWIDTH 500 0
DWIDTH 12 0
BBX 12 24 0 -5
BITMAP
X ................
X ................
X ................
X ................
X ................
X ................
X ................
X ................
X ..********......
X .**......**.....
X .**.............
X .**.............
X .**.............
X ..********......
X .........**.....
X .........**.....
X .........**.....
X .**......**.....
X ..********......
X .....**.........
X .....**.........
X .....**.........
X ....**..........
X ................
ENDCHAR
STARTCHAR Scaron
ENCODING 352
SWIDTH 500 0
DWIDTH 12 0
BBX 12 24 0 -5
BITMAP
X ...**..**.......
X ....****........
X .....**.........
X ................
X ...******.......
X ..**....**......
X .**......**.....
X .**.............
X .**.............
X .**.............
X ..**............
X ...******.......
X ........**......
X .........**.....
X .........**.....
X .........**.....
X .**......**.....
X ..**....**......
X ...******.......
X ................
X ................
X ................
X ................
X ................
ENDCHAR
STARTCHAR scaron
ENCODING 353
SWIDTH 500 0
DWIDTH 12 0
BBX 12 24 0 -5
BITMAP
X ................
X ................
X ................
X ................
X ...**..**.......
X ....****........
X .....**.........
X ................
X ..********......
X .**......**.....
X .**.............
X .**.............
X .**.............
X ..********......
X .........**.....
X .........**.....
X .........**.....
X .**......**.....
X ..********......
X ................
X ................
X ................
X ................
X ................
ENDCHAR
STARTCHAR Tcedilla
ENCODING 354
SWIDTH 500 0
DWIDTH 12 0
BBX 12 24 0 -5
BITMAP
X ................
X ................
X ................
X ................
X .**********.....
X .....**.........
X .....**.........
X .....**.........
X .....**.........
X .....**.........
X .....**.........
X .....**.........
X .....**.........
X .....**.........
X .....**.........
X .....**.........
X .....**.........
X .....**.........
X .....**.........
X ......**........
X ......**........
X ......**........
X .....**.........
X ................
ENDCHAR
STARTCHAR tcedilla
ENCODING 355
SWIDTH 500 0
DWIDTH 12 0
BBX 12 24 0 -5
BITMAP
X ................
X ................
X ................
X ................
X ....**..........
X ....**..........
X ....**..........
X ....**..........
X .********.......
X ....**..........
X ....**..........
X ....**..........
X ....**..........
X ....**..........
X ....**..........
X ....**..........
X ....**..........
X ....**..........
X .....*****......
X ......**........
X ......**........
X ......**........
X .....**.........
X ................
ENDCHAR
STARTCHAR Tcaron
ENCODING 356
SWIDTH 500 0
DWIDTH 12 0
BBX 12 24 0 -5
BITMAP
X ...**..**.......
X ....****........
X .....**.........
X ................
X .**********.....
X .....**.........
X .....**.........
X .....**.........
X .....**.........
X .....**.........
X .....**.........
X .....**.........
X .....**.........
X .....**.........
X .....**.........
X .....**.........
X .....**.........
X .....**.........
X .....**.........
X ................
X ................
X ................
X ................
X ................
ENDCHAR
STARTCHAR tcaron
ENCODING 357
SWIDTH 500 0
DWIDTH 12 0
BBX 12 24 0 -5
BITMAP
X ..**..**........
X ...****.........
X ....**..........
X ................
X ....**..........
X ....**..........
X ....**..........
X ....**..........
X .********.......
X ....**..........
X ....**..........
X ....**..........
X ....**..........
X ....**..........
X ....**..........
X ....**..........
X ....**..........
X ....**..........
X .....*****......
X ................
X ................
X ................
X ................
X ................
ENDCHAR
STARTCHAR Tbar
ENCODING 358
SWIDTH 500 0
DWIDTH 12 0
BBX 12 24 0 -5
BITMAP
X ................
X ................
X ................
X ................
X .**********.....
X .....**.........
X .....**.........
X .....**.........
X .....**.........
X .....**.........
X .....**.........
X ..********......
X .....**.........
X .....**.........
X .....**.........
X .....**.........
X .....**.........
X .....**.........
X .....**.........
X ................
X ................
X ................
X ................
X ................
ENDCHAR
STARTCHAR tbar
ENCODING 359
SWIDTH 500 0
DWIDTH 12 0
BBX 12 24 0 -5
BITMAP
X ................
X ................
X ................
X ................
X ....**..........
X ....**..........
X ....**..........
X ....**..........
X .********.......
X ....**..........
X ....**..........
X ..******........
X ....**..........
X ....**..........
X ....**..........
X ....**..........
X ....**..........
X ....**..........
X .....*****......
X ................
X ................
X ................
X ................
X ................
ENDCHAR
STARTCHAR Utilde
ENCODING 360
SWIDTH 500 0
DWIDTH 12 0
BBX 12 24 0 -5
BITMAP
X ...***..**......
X ..**.**.**......
X ..**..***.......
X ................
X .**......**.....
X .**......**.....
X .**......**.....
X .**......**.....
X .**......**.....
X .**......**.....
X .**......**.....
X .**......**.....
X .**......**.....
X .**......**.....
X .**......**.....
X .**......**.....
X .**......**.....
X ..**....**......
X ...******.......
X ................
X ................
X ................
X ................
X ................
ENDCHAR
STARTCHAR utilde
ENCODING 361
SWIDTH 500 0
DWIDTH 12 0
BBX 12 24 0 -5
BITMAP
X ................
X ................
X ................
X ................
X ...***..**......
X ..**.**.**......
X ..**..***.......
X ................
X .**......**.....
X .**......**.....
X .**......**.....
X .**......**.....
X .**......**.....
X .**......**.....
X .**......**.....
X .**......**.....
X .**......**.....
X ..**.....**.....
X ...********.....
X ................
X ................
X ................
X ................
X ................
ENDCHAR
STARTCHAR Umacron
ENCODING 362
SWIDTH 500 0
DWIDTH 12 0
BBX 12 24 0 -5
BITMAP
X ................
X ..********......
X ................
X ................
X .**......**.....
X .**......**.....
X .**......**.....
X .**......**.....
X .**......**.....
X .**......**.....
X .**......**.....
X .**......**.....
X .**......**.....
X .**......**.....
X .**......**.....
X .**......**.....
X .**......**.....
X ..**....**......
X ...******.......
X ................
X ................
X ................
X ................
X ................
ENDCHAR
STARTCHAR umacron
ENCODING 363
SWIDTH 500 0
DWIDTH 12 0
BBX 12 24 0 -5
BITMAP
X ................
X ................
X ................
X ................
X ................
X ..********......
X ................
X ................
X .**......**.....
X .**......**.....
X .**......**.....
X .**......**.....
X .**......**.....
X .**......**.....
X .**......**.....
X .**......**.....
X .**......**.....
X ..**.....**.....
X ...********.....
X ................
X ................
X ................
X ................
X ................
ENDCHAR
STARTCHAR Ubreve
ENCODING 364
SWIDTH 500 0
DWIDTH 12 0
BBX 12 24 0 -5
BITMAP
X ..**....**......
X ..**....**......
X ...******.......
X ................
X .**......**.....
X .**......**.....
X .**......**.....
X .**......**.....
X .**......**.....
X .**......**.....
X .**......**.....
X .**......**.....
X .**......**.....
X .**......**.....
X .**......**.....
X .**......**.....
X .**......**.....
X ..**....**......
X ...******.......
X ................
X ................
X ................
X ................
X ................
ENDCHAR
STARTCHAR ubreve
ENCODING 365
SWIDTH 500 0
DWIDTH 12 0
BBX 12 24 0 -5
BITMAP
X ................
X ................
X ................
X ................
X ..**....**......
X ..**....**......
X ...******.......
X ................
X .**......**.....
X .**......**.....
X .**......**.....
X .**......**.....
X .**......**.....
X .**......**.....
X .**......**.....
X .**......**.....
X .**......**.....
X ..**.....**.....
X ...********.....
X ................
X ................
X ................
X ................
X ................
ENDCHAR
STARTCHAR Uring
ENCODING 366
SWIDTH 500 0
DWIDTH 12 0
BBX 12 24 0 -5
BITMAP
X ....****........
X ...**..**.......
X ...**..**.......
X ....****........
X .**......**.....
X .**......**.....
X .**......**.....
X .**......**.....
X .**......**.....
X .**......**.....
X .**......**.....
X .**......**.....
X .**......**.....
X .**......**.....
X .**......**.....
X .**......**.....
X .**......**.....
X ..**....**......
X ...******.......
X ................
X ................
X ................
X ................
X ................
ENDCHAR
STARTCHAR uring
ENCODING 367
SWIDTH 500 0
DWIDTH 12 0
BBX 12 24 0 -5
BITMAP
X ................
X ................
X ................
X ................
X ....****........
X ...**..**.......
X ...**..**.......
X ....****........
X .**......**.....
X .**......**.....
X .**......**.....
X .**......**.....
X .**......**.....
X .**......**.....
X .**......**.....
X .**......**.....
X .**......**.....
X ..**.....**.....
X ...********.....
X ................
X ................
X ................
X ................
X ................
ENDCHAR
STARTCHAR Uhungarumlaut
ENCODING 368
SWIDTH 500 0
DWIDTH 12 0
BBX 12 24 0 -5
BITMAP
X .....**..**.....
X ....**..**......
X ...**..**.......
X ................
X .**......**.....
X .**......**.....
X .**......**.....
X .**......**.....
X .**......**.....
X .**......**.....
X .**......**.....
X .**......**.....
X .**......**.....
X .**......**.....
X .**......**.....
X .**......**.....
X .**......**.....
X ..**....**......
X ...******.......
X ................
X ................
X ................
X ................
X ................
ENDCHAR
STARTCHAR uhungarumlaut
ENCODING 369
SWIDTH 500 0
DWIDTH 12 0
BBX 12 24 0 -5
BITMAP
X ................
X ................
X ................
X ................
X .....**..**.....
X ....**..**......
X ...**..**.......
X ................
X .**......**.....
X .**......**.....
X .**......**.....
X .**......**.....
X .**......**.....
X .**......**.....
X .**......**.....
X .**......**.....
X .**......**.....
X ..**.....**.....
X ...********.....
X ................
X ................
X ................
X ................
X ................
ENDCHAR
STARTCHAR Uogonek
ENCODING 370
SWIDTH 500 0
DWIDTH 12 0
BBX 12 24 0 -5
BITMAP
X ................
X ................
X ................
X ................
X .**......**.....
X .**......**.....
X .**......**.....
X .**......**.....
X .**......**.....
X .**......**.....
X .**......**.....
X .**......**.....
X .**......**.....
X .**......**.....
X .**......**.....
X .**......**.....
X .**......**.....
X ..**....**......
X ...******.......
X .....***........
X ....**..........
X ....**..........
X .....****.......
X ................
ENDCHAR
STARTCHAR uogonek
ENCODING 371
SWIDTH 500 0
DWIDTH 12 0
BBX 12 24 0 -5
BITMAP
X ................
X ................
X ................
X ................
X ................
X ................
X ................
X ................
X .**......**.....
X .**......**.....
X .**......**.....
X .**......**.....
X .**......**.....
X .**......**.....
X .**......**.....
X .**......**.....
X .**......**.....
X ..**.....**.....
X ...********.....
X ........***.....
X .......**.......
X .......**.......
X ........****....
X ................
ENDCHAR
STARTCHAR Wcircumflex
ENCODING 372
SWIDTH 500 0
DWIDTH 12 0
BBX 12 24 0 -5
BITMAP
X .....**.........
X ....****........
X ...**..**.......
X ................
X **.......**.....
X **.......**.....
X **.......**.....
X **.......**.....
X **.......**.....
X **.......**.....
X **.......**.....
X **.......**.....
X **...*...**.....
X **..***..**.....
X **.**.**.**.....
X ****...****.....
X ***.....***.....
X **.......**.....
X *.........*.....
X ................
X ................
X ................
X ................
X ................
ENDCHAR
STARTCHAR wcircumflex
ENCODING 373
SWIDTH 500 0
DWIDTH 12 0
BBX 12 24 0 -5
BITMAP
X ................
X ................
X ................
X ................
X .....**.........
X ....****........
X ...**..**.......
X ................
X .**......**.....
X .**......**.....
X .**......**.....
X .**......**.....
X .**..**..**.....
X .**..**..**.....
X .**..**..**.....
X .**..**..**.....
X .**..**..**.....
X .**..**..**.....
X ..********......
X ................
X ................
X ................
X ................
X ................
ENDCHAR
STARTCHAR Ydieresis
ENCODING 376
SWIDTH 500 0
DWIDTH 12 0
BBX 12 24 0 -5
BITMAP
X ...**..**.......
X ...**..**.......
X ...**..**.......
X ................
X .**......**.....
X .**......**.....
X ..**....**......
X ..**....**......
X ...**..**.......
X ...**..**.......
X ....****........
X ....****........
X .....**.........
X .....**.........
X .....**.........
X .....**.........
X .....**.........
X .....**.........
X .....**.........
X ................
X ................
X ................
X ................
X ................
ENDCHAR
STARTCHAR Zacute
ENCODING 377
SWIDTH 500 0
DWIDTH 12 0
BBX 12 24 0 -5
BITMAP
X .......**.......
X ......**........
X .....**.........
X ................
X .**********.....
X .........**.....
X .........**.....
X .........**.....
X ........**......
X .......**.......
X ......**........
X .....**.........
X ....**..........
X ...**...........
X ..**............
X .**.............
X .**.............
X .**.............
X .**********.....
X ................
X ................
X ................
X ................
X ................
ENDCHAR
STARTCHAR zacute
ENCODING 378
SWIDTH 500 0
DWIDTH 12 0
BBX 12 24 0 -5
BITMAP
X ................
X ................
X ................
X ................
X .......**.......
X ......**........
X .....**.........
X ................
X .**********.....
X .........**.....
X ........**......
X .......**.......
X ......**........
X .....**.........
X ....**..........
X ...**...........
X ..**............
X .**.............
X .**********.....
X ................
X ................
X ................
X ................
X ................
ENDCHAR
STARTCHAR Zdotaccent
ENCODING 379
SWIDTH 500 0
DWIDTH 12 0
BBX 12 24 0 -5
BITMAP
X .....**.........
X .....**.........
X .....**.........
X ................
X .**********.....
X .........**.....
X .........**.....
X .........**.....
X ........**......
X .......**.......
X ......**........
X .....**.........
X ....**..........
X ...**...........
X ..**............
X .**.............
X .**.............
X .**.............
X .**********.....
X ................
X ................
X ................
X ................
X ................
ENDCHAR
STARTCHAR zdotaccent
ENCODING 380
SWIDTH 500 0
DWIDTH 12 0
BBX 12 24 0 -5
BITMAP
X ................
X ................
X ................
X ................
X .....**.........
X .....**.........
X .....**.........
X ................
X .**********.....
X .........**.....
X ........**......
X .......**.......
X ......**........
X .....**.........
X ....**..........
X ...**...........
X ..**............
X .**.............
X .**********.....
X ................
X ................
X ................
X ................
X ................
ENDCHAR
STARTCHAR Zcaron
ENCODING 381
SWIDTH 500 0
DWIDTH 12 0
BBX 12 24 0 -5
BITMAP
X ...**..**.......
X ....****........
X .....**.........
X ................
X .**********.....
X .........**.....
X .........**.....
X .........**.....
X ........**......
X .......**.......
X ......**........
X .....**.........
X ....**..........
X ...**...........
X ..**............
X .**.............
X .**.............
X .**.............
X .**********.....
X ................
X ................
X ................
X ................
X ................
ENDCHAR
STARTCHAR zcaron
ENCODING 382
SWIDTH 500 0
DWIDTH 12 0
BBX 12 24 0 -5
BITMAP
X ................
X ................
X ................
X ................
X ...**..**.......
X ....****........
X .....**.........
X ................
X .**********.....
X .........**.....
X ........**......
X .......**.......
X ......**........
X .....**.........
X ....**..........
X ...**...........
X ..**............
X .**.............
X .**********.....
X ................
X ................
X ................
X ................
X ................
ENDCHAR
STARTCHAR longs
ENCODING 383
SWIDTH 500 0
DWIDTH 12 0
BBX 12 24 0 -5
BITMAP
X ................
X ................
X ................
X ................
X ......*****.....
X .....**.........
X .....**.........
X .....**.........
X .....**.........
X .....**.........
X .....**.........
X .....**.........
X .....**.........
X .....**.........
X .....**.........
X .....**.........
X .....**.........
X .....**.........
X .....**.........
X ................
X ................
X ................
X ................
X ................
ENDCHAR
STARTCHAR uni0186
ENCODING 390
SWIDTH 500 0
DWIDTH 12 0
BBX 12 24 0 -5
BITMAP
X ................
X ................
X ................
X ................
X ...******.......
X ..**....**......
X .**......**.....
X .**......**.....
X .........**.....
X .........**.....
X .........**.....
X .........**.....
X .........**.....
X .........**.....
X .........**.....
X .**......**.....
X .**......**.....
X ..**....**......
X ...******.......
X ................
X ................
X ................
X ................
X ................
ENDCHAR
STARTCHAR uni018E
ENCODING 398
SWIDTH 500 0
DWIDTH 12 0
BBX 12 24 0 -5
BITMAP
X ................
X ................
X ................
X ................
X .**********.....
X .........**.....
X .........**.....
X .........**.....
X .........**.....
X .........**.....
X .........**.....
X ...********.....
X .........**.....
X .........**.....
X .........**.....
X .........**.....
X .........**.....
X .........**.....
X .**********.....
X ................
X ................
X ................
X ................
X ................
ENDCHAR
STARTCHAR Schwa
ENCODING 399
SWIDTH 500 0
DWIDTH 12 0
BBX 12 24 0 -5
BITMAP
X ................
X ................
X ................
X ................
X ...******.......
X ..**....**......
X .**......**.....
X .........**.....
X .........**.....
X .........**.....
X .........**.....
X .**********.....
X .**......**.....
X .**......**.....
X .**......**.....
X .**......**.....
X .**......**.....
X ..**....**......
X ...******.......
X ................
X ................
X ................
X ................
X ................
ENDCHAR
STARTCHAR uni0190
ENCODING 400
SWIDTH 500 0
DWIDTH 12 0
BBX 12 24 0 -5
BITMAP
X ................
X ................
X ................
X ................
X ...******.......
X ..**....**......
X .**......**.....
X .**.............
X .**.............
X .**.............
X ..**............
X ...*****........
X ..**............
X .**.............
X .**.............
X .**.............
X .**......**.....
X ..**....**......
X ...******.......
X ................
X ................
X ................
X ................
X ................
ENDCHAR
STARTCHAR florin
ENCODING 402
SWIDTH 500 0
DWIDTH 12 0
BBX 12 24 0 -5
BITMAP
X ................
X ................
X ................
X ................
X ......****......
X .....**..**.....
X .....**..**.....
X .....**.........
X .....**.........
X .....**.........
X ..********......
X .....**.........
X .....**.........
X .....**.........
X .....**.........
X .....**.........
X .....**.........
X .....**.........
X .....**.........
X .....**.........
X .**..**.........
X .**..**.........
X ..****..........
X ................
ENDCHAR
STARTCHAR uni019D
ENCODING 413
SWIDTH 500 0
DWIDTH 12 0
BBX 12 24 0 -5
BITMAP
X ................
X ................
X ................
X ................
X .**......**.....
X .**......**.....
X .**......**.....
X .**......**.....
X .***.....**.....
X .****....**.....
X .**.**...**.....
X .**..**..**.....
X .**...**.**.....
X .**....****.....
X .**.....***.....
X .**......**.....
X .**......**.....
X .**......**.....
X .**......**.....
X .**.............
X .**.............
X .**.............
X **..............
X ................
ENDCHAR
STARTCHAR uni019E
ENCODING 414
SWIDTH 500 0
DWIDTH 12 0
BBX 12 24 0 -5
BITMAP
X ................
X ................
X ................
X ................
X ................
X ................
X ................
X ................
X .********.......
X .**.....**......
X .**......**.....
X .**......**.....
X .**......**.....
X .**......**.....
X .**......**.....
X .**......**.....
X .**......**.....
X .**......**.....
X .**......**.....
X .........**.....
X .........**.....
X .........**.....
X .........**.....
X ................
ENDCHAR
STARTCHAR Ezh
ENCODING 439
SWIDTH 500 0
DWIDTH 12 0
BBX 12 24 0 -5
BITMAP
X ................
X ................
X ................
X ................
X .**********.....
X .........**.....
X ........**......
X .......**.......
X ......**........
X .....**.........
X ....*****.......
X ........**......
X .........**.....
X .........**.....
X .........**.....
X .........**.....
X .**......**.....
X ..**....**......
X ...******.......
X ................
X ................
X ................
X ................
X ................
ENDCHAR
STARTCHAR Scommaaccent
ENCODING 536
SWIDTH 500 0
DWIDTH 12 0
BBX 12 24 0 -5
BITMAP
X ................
X ................
X ................
X ................
X ...******.......
X ..**....**......
X .**......**.....
X .**.............
X .**.............
X .**.............
X ..**............
X ...******.......
X ........**......
X .........**.....
X .........**.....
X .........**.....
X .**......**.....
X ..**....**......
X ...******.......
X ................
X .....**.........
X .....**.........
X .....**.........
X ....**..........
ENDCHAR
STARTCHAR scommaaccent
ENCODING 537
SWIDTH 500 0
DWIDTH 12 0
BBX 12 24 0 -5
BITMAP
X ................
X ................
X ................
X ................
X ................
X ................
X ................
X ................
X ..********......
X .**......**.....
X .**.............
X .**.............
X .**.............
X ..********......
X .........**.....
X .........**.....
X .........**.....
X .**......**.....
X ..********......
X ................
X .....**.........
X .....**.........
X .....**.........
X ....**..........
ENDCHAR
STARTCHAR Tcommaaccent
ENCODING 538
SWIDTH 500 0
DWIDTH 12 0
BBX 12 24 0 -5
BITMAP
X ................
X ................
X ................
X ................
X .**********.....
X .....**.........
X .....**.........
X .....**.........
X .....**.........
X .....**.........
X .....**.........
X .....**.........
X .....**.........
X .....**.........
X .....**.........
X .....**.........
X .....**.........
X .....**.........
X .....**.........
X ................
X .....**.........
X .....**.........
X .....**.........
X ....**..........
ENDCHAR
STARTCHAR tcommaaccent
ENCODING 539
SWIDTH 500 0
DWIDTH 12 0
BBX 12 24 0 -5
BITMAP
X ................
X ................
X ................
X ................
X ....**..........
X ....**..........
X ....**..........
X ....**..........
X .********.......
X ....**..........
X ....**..........
X ....**..........
X ....**..........
X ....**..........
X ....**..........
X ....**..........
X ....**..........
X ....**..........
X .....*****......
X ................
X ......**........
X ......**........
X ......**........
X .....**.........
ENDCHAR
STARTCHAR uni0232
ENCODING 562
SWIDTH 500 0
DWIDTH 12 0
BBX 12 24 0 -5
BITMAP
X ................
X ..********......
X ................
X ................
X .**......**.....
X .**......**.....
X ..**....**......
X ..**....**......
X ...**..**.......
X ...**..**.......
X ....****........
X ....****........
X .....**.........
X .....**.........
X .....**.........
X .....**.........
X .....**.........
X .....**.........
X .....**.........
X ................
X ................
X ................
X ................
X ................
ENDCHAR
STARTCHAR uni0233
ENCODING 563
SWIDTH 500 0
DWIDTH 12 0
BBX 12 24 0 -5
BITMAP
X ................
X ................
X ................
X ................
X ................
X ..********......
X ................
X ................
X .**......**.....
X .**......**.....
X .**......**.....
X .**......**.....
X .**......**.....
X .**......**.....
X .**......**.....
X .**......**.....
X .**......**.....
X ..**....***.....
X ...********.....
X .........**.....
X .........**.....
X ........**......
X ..*******.......
X ................
ENDCHAR
STARTCHAR dotlessj
ENCODING 567
SWIDTH 500 0
DWIDTH 12 0
BBX 12 24 0 -5
BITMAP
X ................
X ................
X ................
X ................
X ................
X ................
X ................
X ................
X ......****......
X ........**......
X ........**......
X ........**......
X ........**......
X ........**......
X ........**......
X ........**......
X ........**......
X ........**......
X ........**......
X ..**....**......
X ..**....**......
X ...**..**.......
X ....****........
X ................
ENDCHAR
STARTCHAR uni0254
ENCODING 596
SWIDTH 500 0
DWIDTH 12 0
BBX 12 24 0 -5
BITMAP
X ................
X ................
X ................
X ................
X ................
X ................
X ................
X ................
X ...******.......
X ..**....**......
X .**......**.....
X .........**.....
X .........**.....
X .........**.....
X .........**.....
X .........**.....
X .**......**.....
X ..**....**......
X ...******.......
X ................
X ................
X ................
X ................
X ................
ENDCHAR
STARTCHAR uni0258
ENCODING 600
SWIDTH 500 0
DWIDTH 12 0
BBX 12 24 0 -5
BITMAP
X ................
X ................
X ................
X ................
X ................
X ................
X ................
X ................
X ...******.......
X ..**....**......
X .**......**.....
X .**......**.....
X .**......**.....
X .**********.....
X .........**.....
X .........**.....
X .........**.....
X .**.....**......
X ..*******.......
X ................
X ................
X ................
X ................
X ................
ENDCHAR
STARTCHAR schwa
ENCODING 601
SWIDTH 500 0
DWIDTH 12 0
BBX 12 24 0 -5
BITMAP
X ................
X ................
X ................
X ................
X ................
X ................
X ................
X ................
X ..*******.......
X .**.....**......
X .........**.....
X .........**.....
X .........**.....
X .**********.....
X .**......**.....
X .**......**.....
X .**......**.....
X ..**....**......
X ...******.......
X ................
X ................
X ................
X ................
X ................
ENDCHAR
STARTCHAR uni025B
ENCODING 603
SWIDTH 500 0
DWIDTH 12 0
BBX 12 24 0 -5
BITMAP
X ................
X ................
X ................
X ................
X ................
X ................
X ................
X ................
X ..********......
X .**......**.....
X .**.............
X .**.............
X .**.............
X ..******........
X .**.............
X .**.............
X .**.............
X .**......**.....
X ..********......
X ................
X ................
X ................
X ................
X ................
ENDCHAR
STARTCHAR uni0272
ENCODING 626
SWIDTH 500 0
DWIDTH 12 0
BBX 12 24 0 -5
BITMAP
X ................
X ................
X ................
X ................
X ................
X ................
X ................
X ................
X .********.......
X .**.....**......
X .**......**.....
X .**......**.....
X .**......**.....
X .**......**.....
X .**......**.....
X .**......**.....
X .**......**.....
X .**......**.....
X .**......**.....
X .**.............
X .**.............
X .**.............
X **..............
X ................
ENDCHAR
STARTCHAR ezh
ENCODING 658
SWIDTH 500 0
DWIDTH 12 0
BBX 12 24 0 -5
BITMAP
X ................
X ................
X ................
X ................
X ................
X ................
X ................
X ................
X .**********.....
X .........**.....
X ........**......
X .......**.......
X ......**........
X .....**.........
X ....*****.......
X ........**......
X .........**.....
X .........**.....
X .........**.....
X .........**.....
X .**......**.....
X ..**....**......
X ...******.......
X ................
ENDCHAR
STARTCHAR commaturnedmod
ENCODING 699
SWIDTH 500 0
DWIDTH 12 0
BBX 12 24 0 -5
BITMAP
X ......**........
X .....**.........
X .....**.........
X .....**.........
X ................
X ................
X ................
X ................
X ................
X ................
X ................
X ................
X ................
X ................
X ................
X ................
X ................
X ................
X ................
X ................
X ................
X ................
X ................
X ................
ENDCHAR
STARTCHAR afii57929
ENCODING 700
SWIDTH 500 0
DWIDTH 12 0
BBX 12 24 0 -5
BITMAP
X .....**.........
X .....**.........
X .....**.........
X ....**..........
X ................
X ................
X ................
X ................
X ................
X ................
X ................
X ................
X ................
X ................
X ................
X ................
X ................
X ................
X ................
X ................
X ................
X ................
X ................
X ................
ENDCHAR
STARTCHAR afii64937
ENCODING 701
SWIDTH 500 0
DWIDTH 12 0
BBX 12 24 0 -5
BITMAP
X .....**.........
X .....**.........
X .....**.........
X ......**........
X ................
X ................
X ................
X ................
X ................
X ................
X ................
X ................
X ................
X ................
X ................
X ................
X ................
X ................
X ................
X ................
X ................
X ................
X ................
X ................
ENDCHAR
STARTCHAR circumflex
ENCODING 710
SWIDTH 500 0
DWIDTH 12 0
BBX 12 24 0 -5
BITMAP
X .....**.........
X ....****........
X ...**..**.......
X ................
X ................
X ................
X ................
X ................
X ................
X ................
X ................
X ................
X ................
X ................
X ................
X ................
X ................
X ................
X ................
X ................
X ................
X ................
X ................
X ................
ENDCHAR
STARTCHAR caron
ENCODING 711
SWIDTH 500 0
DWIDTH 12 0
BBX 12 24 0 -5
BITMAP
X ...**..**.......
X ....****........
X .....**.........
X ................
X ................
X ................
X ................
X ................
X ................
X ................
X ................
X ................
X ................
X ................
X ................
X ................
X ................
X ................
X ................
X ................
X ................
X ................
X ................
X ................
ENDCHAR
STARTCHAR breve
ENCODING 728
SWIDTH 500 0
DWIDTH 12 0
BBX 12 24 0 -5
BITMAP
X ..**....**......
X ..**....**......
X ...******.......
X ................
X ................
X ................
X ................
X ................
X ................
X ................
X ................
X ................
X ................
X ................
X ................
X ................
X ................
X ................
X ................
X ................
X ................
X ................
X ................
X ................
ENDCHAR
STARTCHAR dotaccent
ENCODING 729
SWIDTH 500 0
DWIDTH 12 0
BBX 12 24 0 -5
BITMAP
X .....**.........
X .....**.........
X .....**.........
X ................
X ................
X ................
X ................
X ................
X ................
X ................
X ................
X ................
X ................
X ................
X ................
X ................
X ................
X ................
X ................
X ................
X ................
X ................
X ................
X ................
ENDCHAR
STARTCHAR ogonek
ENCODING 731
SWIDTH 500 0
DWIDTH 12 0
BBX 12 24 0 -5
BITMAP
X ................
X ................
X ................
X ................
X ................
X ................
X ................
X ................
X ................
X ................
X ................
X ................
X ................
X ................
X ................
X ................
X ................
X ................
X ................
X ........***.....
X .......**.......
X .......**.......
X ........****....
X ................
ENDCHAR
STARTCHAR tilde
ENCODING 732
SWIDTH 500 0
DWIDTH 12 0
BBX 12 24 0 -5
BITMAP
X ...***..**......
X ..**.**.**......
X ..**..***.......
X ................
X ................
X ................
X ................
X ................
X ................
X ................
X ................
X ................
X ................
X ................
X ................
X ................
X ................
X ................
X ................
X ................
X ................
X ................
X ................
X ................
ENDCHAR
STARTCHAR hungarumlaut
ENCODING 733
SWIDTH 500 0
DWIDTH 12 0
BBX 12 24 0 -5
BITMAP
X .....**..**.....
X ....**..**......
X ...**..**.......
X ................
X ................
X ................
X ................
X ................
X ................
X ................
X ................
X ................
X ................
X ................
X ................
X ................
X ................
X ................
X ................
X ................
X ................
X ................
X ................
X ................
ENDCHAR
STARTCHAR gravecomb
ENCODING 768
SWIDTH 500 0
DWIDTH 12 0
BBX 12 24 0 -5
BITMAP
X ...**...........
X ....**..........
X .....**.........
X ................
X ................
X ................
X ................
X ................
X ................
X ................
X ................
X ................
X ................
X ................
X ................
X ................
X ................
X ................
X ................
X ................
X ................
X ................
X ................
X ................
ENDCHAR
STARTCHAR acutecomb
ENCODING 769
SWIDTH 500 0
DWIDTH 12 0
BBX 12 24 0 -5
BITMAP
X .......**.......
X ......**........
X .....**.........
X ................
X ................
X ................
X ................
X ................
X ................
X ................
X ................
X ................
X ................
X ................
X ................
X ................
X ................
X ................
X ................
X ................
X ................
X ................
X ................
X ................
ENDCHAR
STARTCHAR uni0302
ENCODING 770
SWIDTH 500 0
DWIDTH 12 0
BBX 12 24 0 -5
BITMAP
X .....**.........
X ....****........
X ...**..**.......
X ................
X ................
X ................
X ................
X ................
X ................
X ................
X ................
X ................
X ................
X ................
X ................
X ................
X ................
X ................
X ................
X ................
X ................
X ................
X ................
X ................
ENDCHAR
STARTCHAR tildecomb
ENCODING 771
SWIDTH 500 0
DWIDTH 12 0
BBX 12 24 0 -5
BITMAP
X ...***..**......
X ..**.**.**......
X ..**..***.......
X ................
X ................
X ................
X ................
X ................
X ................
X ................
X ................
X ................
X ................
X ................
X ................
X ................
X ................
X ................
X ................
X ................
X ................
X ................
X ................
X ................
ENDCHAR
STARTCHAR uni0306
ENCODING 774
SWIDTH 500 0
DWIDTH 12 0
BBX 12 24 0 -5
BITMAP
X ..**....**......
X ..**....**......
X ...******.......
X ................
X ................
X ................
X ................
X ................
X ................
X ................
X ................
X ................
X ................
X ................
X ................
X ................
X ................
X ................
X ................
X ................
X ................
X ................
X ................
X ................
ENDCHAR
STARTCHAR uni030C
ENCODING 780
SWIDTH 500 0
DWIDTH 12 0
BBX 12 24 0 -5
BITMAP
X ...**..**.......
X ....****........
X .....**.........
X ................
X ................
X ................
X ................
X ................
X ................
X ................
X ................
X ................
X ................
X ................
X ................
X ................
X ................
X ................
X ................
X ................
X ................
X ................
X ................
X ................
ENDCHAR
STARTCHAR uni0329
ENCODING 809
SWIDTH 500 0
DWIDTH 12 0
BBX 12 24 0 -5
BITMAP
X ................
X ................
X ................
X ................
X ................
X ................
X ................
X ................
X ................
X ................
X ................
X ................
X ................
X ................
X ................
X ................
X ................
X ................
X ................
X ................
X .....**.........
X .....**.........
X .....**.........
X ................
ENDCHAR
STARTCHAR tonos
ENCODING 900
SWIDTH 500 0
DWIDTH 12 0
BBX 12 24 0 -5
BITMAP
X ................
X ..**............
X .**.............
X **..............
X ................
X ................
X ................
X ................
X ................
X ................
X ................
X ................
X ................
X ................
X ................
X ................
X ................
X ................
X ................
X ................
X ................
X ................
X ................
X ................
ENDCHAR
STARTCHAR dieresistonos
ENCODING 901
SWIDTH 500 0
DWIDTH 12 0
BBX 12 24 0 -5
BITMAP
X .......**.......
X ......**........
X .....**.........
X ................
X ...**..**.......
X ...**..**.......
X ...**..**.......
X ................
X ................
X ................
X ................
X ................
X ................
X ................
X ................
X ................
X ................
X ................
X ................
X ................
X ................
X ................
X ................
X ................
ENDCHAR
STARTCHAR Alphatonos
ENCODING 902
SWIDTH 500 0
DWIDTH 12 0
BBX 12 24 0 -5
BITMAP
X ................
X ..**............
X .**.............
X **..............
X ...******.......
X ..**....**......
X .**......**.....
X .**......**.....
X .**......**.....
X .**......**.....
X .**......**.....
X .**......**.....
X .**********.....
X .**......**.....
X .**......**.....
X .**......**.....
X .**......**.....
X .**......**.....
X .**......**.....
X ................
X ................
X ................
X ................
X ................
ENDCHAR
STARTCHAR anoteleia
ENCODING 903
SWIDTH 500 0
DWIDTH 12 0
BBX 12 24 0 -5
BITMAP
X ................
X ................
X ................
X ................
X ................
X ................
X ................
X ................
X .....**.........
X .....**.........
X .....**.........
X ................
X ................
X ................
X ................
X ................
X ................
X ................
X ................
X ................
X ................
X ................
X ................
X ................
ENDCHAR
STARTCHAR Epsilontonos
ENCODING 904
SWIDTH 500 0
DWIDTH 12 0
BBX 12 24 0 -5
BITMAP
X ................
X ..**............
X .**.............
X **..............
X .**********.....
X .**.............
X .**.............
X .**.............
X .**.............
X .**.............
X .**.............
X .********.......
X .**.............
X .**.............
X .**.............
X .**.............
X .**.............
X .**.............
X .**********.....
X ................
X ................
X ................
X ................
X ................
ENDCHAR
STARTCHAR Etatonos
ENCODING 905
SWIDTH 500 0
DWIDTH 12 0
BBX 12 24 0 -5
BITMAP
X ................
X ..**............
X .**.............
X **..............
X .**......**.....
X .**......**.....
X .**......**.....
X .**......**.....
X .**......**.....
X .**......**.....
X .**......**.....
X .**********.....
X .**......**.....
X .**......**.....
X .**......**.....
X .**......**.....
X .**......**.....
X .**......**.....
X .**......**.....
X ................
X ................
X ................
X ................
X ................
ENDCHAR
STARTCHAR Iotatonos
ENCODING 906
SWIDTH 500 0
DWIDTH 12 0
BBX 12 24 0 -5
BITMAP
X ................
X ..**............
X .**.............
X **..............
X ...******.......
X .....**.........
X .....**.........
X .....**.........
X .....**.........
X .....**.........
X .....**.........
X .....**.........
X .....**.........
X .....**.........
X .....**.........
X .....**.........
X .....**.........
X .....**.........
X ...******.......
X ................
X ................
X ................
X ................
X ................
ENDCHAR
STARTCHAR Omicrontonos
ENCODING 908
SWIDTH 500 0
DWIDTH 12 0
BBX 12 24 0 -5
BITMAP
X ................
X ..**............
X .**.............
X **..............
X ...******.......
X ..**....**......
X .**......**.....
X .**......**.....
X .**......**.....
X .**......**.....
X .**......**.....
X .**......**.....
X .**......**.....
X .**......**.....
X .**......**.....
X .**......**.....
X .**......**.....
X ..**....**......
X ...******.......
X ................
X ................
X ................
X ................
X ................
ENDCHAR
STARTCHAR Upsilontonos
ENCODING 910
SWIDTH 500 0
DWIDTH 12 0
BBX 12 24 0 -5
BITMAP
X ................
X ..**............
X .**.............
X **..............
X ..**......**....
X ..**......**....
X ...**....**.....
X ...**....**.....
X ....**..**......
X ....**..**......
X .....****.......
X .....****.......
X ......**........
X ......**........
X ......**........
X ......**........
X ......**........
X ......**........
X ......**........
X ................
X ................
X ................
X ................
X ................
ENDCHAR
STARTCHAR Omegatonos
ENCODING 911
SWIDTH 500 0
DWIDTH 12 0
BBX 12 24 0 -5
BITMAP
X ................
X ..**............
X .**.............
X **..............
X ...******.......
X ..**....**......
X .**......**.....
X .**......**.....
X .**......**.....
X .**......**.....
X .**......**.....
X .**......**.....
X .**......**.....
X .**......**.....
X .**......**.....
X ..**....**......
X ...**..**.......
X ...**..**.......
X .****..****.....
X ................
X ................
X ................
X ................
X ................
ENDCHAR
STARTCHAR iotadieresistonos
ENCODING 912
SWIDTH 500 0
DWIDTH 12 0
BBX 12 24 0 -5
BITMAP
X .......**.......
X ......**........
X .....**.........
X ................
X ...**..**.......
X ...**..**.......
X ...**..**.......
X ................
X ...****.........
X .....**.........
X .....**.........
X .....**.........
X .....**.........
X .....**.........
X .....**.........
X .....**.........
X .....**.........
X .....**.........
X ......****......
X ................
X ................
X ................
X ................
X ................
ENDCHAR
STARTCHAR Alpha
ENCODING 913
SWIDTH 500 0
DWIDTH 12 0
BBX 12 24 0 -5
BITMAP
X ................
X ................
X ................
X ................
X ...******.......
X ..**....**......
X .**......**.....
X .**......**.....
X .**......**.....
X .**......**.....
X .**......**.....
X .**......**.....
X .**********.....
X .**......**.....
X .**......**.....
X .**......**.....
X .**......**.....
X .**......**.....
X .**......**.....
X ................
X ................
X ................
X ................
X ................
ENDCHAR
STARTCHAR Beta
ENCODING 914
SWIDTH 500 0
DWIDTH 12 0
BBX 12 24 0 -5
BITMAP
X ................
X ................
X ................
X ................
X .********.......
X .**.....**......
X .**......**.....
X .**......**.....
X .**......**.....
X .**.....**......
X .********.......
X .**.....**......
X .**......**.....
X .**......**.....
X .**......**.....
X .**......**.....
X .**......**.....
X .**.....**......
X .********.......
X ................
X ................
X ................
X ................
X ................
ENDCHAR
STARTCHAR Gamma
ENCODING 915
SWIDTH 500 0
DWIDTH 12 0
BBX 12 24 0 -5
BITMAP
X ................
X ................
X ................
X ................
X .**********.....
X .**.............
X .**.............
X .**.............
X .**.............
X .**.............
X .**.............
X .**.............
X .**.............
X .**.............
X .**.............
X .**.............
X .**.............
X .**.............
X .**.............
X ................
X ................
X ................
X ................
X ................
ENDCHAR
STARTCHAR Delta
ENCODING 916
SWIDTH 500 0
DWIDTH 12 0
BBX 12 24 0 -5
BITMAP
X ................
X ................
X ................
X ................
X .....**.........
X .....**.........
X .....**.........
X ....****........
X ....****........
X ....****........
X ...**..**.......
X ...**..**.......
X ...**..**.......
X ..**....**......
X ..**....**......
X ..**....**......
X .**......**.....
X .**......**.....
X .**********.....
X ................
X ................
X ................
X ................
X ................
ENDCHAR
STARTCHAR Epsilon
ENCODING 917
SWIDTH 500 0
DWIDTH 12 0
BBX 12 24 0 -5
BITMAP
X ................
X ................
X ................
X ................
X .**********.....
X .**.............
X .**.............
X .**.............
X .**.............
X .**.............
X .**.............
X .********.......
X .**.............
X .**.............
X .**.............
X .**.............
X .**.............
X .**.............
X .**********.....
X ................
X ................
X ................
X ................
X ................
ENDCHAR
STARTCHAR Zeta
ENCODING 918
SWIDTH 500 0
DWIDTH 12 0
BBX 12 24 0 -5
BITMAP
X ................
X ................
X ................
X ................
X .**********.....
X .........**.....
X .........**.....
X .........**.....
X ........**......
X .......**.......
X ......**........
X .....**.........
X ....**..........
X ...**...........
X ..**............
X .**.............
X .**.............
X .**.............
X .**********.....
X ................
X ................
X ................
X ................
X ................
ENDCHAR
STARTCHAR Eta
ENCODING 919
SWIDTH 500 0
DWIDTH 12 0
BBX 12 24 0 -5
BITMAP
X ................
X ................
X ................
X ................
X .**......**.....
X .**......**.....
X .**......**.....
X .**......**.....
X .**......**.....
X .**......**.....
X .**......**.....
X .**********.....
X .**......**.....
X .**......**.....
X .**......**.....
X .**......**.....
X .**......**.....
X .**......**.....
X .**......**.....
X ................
X ................
X ................
X ................
X ................
ENDCHAR
STARTCHAR Theta
ENCODING 920
SWIDTH 500 0
DWIDTH 12 0
BBX 12 24 0 -5
BITMAP
X ................
X ................
X ................
X ................
X ...******.......
X ..**....**......
X .**......**.....
X .**......**.....
X .**......**.....
X .**......**.....
X .**......**.....
X .**.****.**.....
X .**......**.....
X .**......**.....
X .**......**.....
X .**......**.....
X .**......**.....
X ..**....**......
X ...******.......
X ................
X ................
X ................
X ................
X ................
ENDCHAR
STARTCHAR Iota
ENCODING 921
SWIDTH 500 0
DWIDTH 12 0
BBX 12 24 0 -5
BITMAP
X ................
X ................
X ................
X ................
X ...******.......
X .....**.........
X .....**.........
X .....**.........
X .....**.........
X .....**.........
X .....**.........
X .....**.........
X .....**.........
X .....**.........
X .....**.........
X .....**.........
X .....**.........
X .....**.........
X ...******.......
X ................
X ................
X ................
X ................
X ................
ENDCHAR
STARTCHAR Kappa
ENCODING 922
SWIDTH 500 0
DWIDTH 12 0
BBX 12 24 0 -5
BITMAP
X ................
X ................
X ................
X ................
X .**......**.....
X .**.....**......
X .**....**.......
X .**...**........
X .**..**.........
X .**.**..........
X .****...........
X .***............
X .****...........
X .**.**..........
X .**..**.........
X .**...**........
X .**....**.......
X .**.....**......
X .**......**.....
X ................
X ................
X ................
X ................
X ................
ENDCHAR
STARTCHAR Lambda
ENCODING 923
SWIDTH 500 0
DWIDTH 12 0
BBX 12 24 0 -5
BITMAP
X ................
X ................
X ................
X ................
X .....**.........
X .....**.........
X .....**.........
X ....****........
X ....****........
X ....****........
X ...**..**.......
X ...**..**.......
X ...**..**.......
X ..**....**......
X ..**....**......
X ..**....**......
X .**......**.....
X .**......**.....
X .**......**.....
X ................
X ................
X ................
X ................
X ................
ENDCHAR
STARTCHAR Mu
ENCODING 924
SWIDTH 500 0
DWIDTH 12 0
BBX 12 24 0 -5
BITMAP
X ................
X ................
X ................
X ................
X *.........*.....
X **.......**.....
X ***.....***.....
X ****...****.....
X **.**.**.**.....
X **..***..**.....
X **...*...**.....
X **.......**.....
X **.......**.....
X **.......**.....
X **.......**.....
X **.......**.....
X **.......**.....
X **.......**.....
X **.......**.....
X ................
X ................
X ................
X ................
X ................
ENDCHAR
STARTCHAR Nu
ENCODING 925
SWIDTH 500 0
DWIDTH 12 0
BBX 12 24 0 -5
BITMAP
X ................
X ................
X ................
X ................
X .**......**.....
X .**......**.....
X .**......**.....
X .**......**.....
X .***.....**.....
X .****....**.....
X .**.**...**.....
X .**..**..**.....
X .**...**.**.....
X .**....****.....
X .**.....***.....
X .**......**.....
X .**......**.....
X .**......**.....
X .**......**.....
X ................
X ................
X ................
X ................
X ................
ENDCHAR
STARTCHAR Xi
ENCODING 926
SWIDTH 500 0
DWIDTH 12 0
BBX 12 24 0 -5
BITMAP
X ................
X ................
X ................
X ................
X .**********.....
X ................
X ................
X ................
X ................
X ................
X ................
X ...******.......
X ................
X ................
X ................
X ................
X ................
X ................
X .**********.....
X ................
X ................
X ................
X ................
X ................
ENDCHAR
ENDFONT
